<svg width="250" height="60" viewBox="0 0 250 60" fill="none" xmlns="http://www.w3.org/2000/svg">
<path d="M0.5 27.563H3.16725V29.6823H0.5V27.563Z" fill="#00D5C0"/>
<path d="M45.8433 27.563H48.9551V29.2584H45.8433V27.563Z" fill="#00D5C0"/>
<path fill-rule="evenodd" clip-rule="evenodd" d="M23.7916 14H13.4795C7.78434 14 3.16748 18.3553 3.16748 23.7278V27.5043H7.15829V22.9186C7.15829 19.9431 9.71532 17.5309 12.8696 17.5309H23.7916V14ZM25.2194 17.5309H36.6433C39.7976 17.5309 42.3546 19.9431 42.3546 22.9186V27.3688H45.8435V23.7278C45.8435 18.3553 41.2266 14 35.5314 14H25.2194V17.5309ZM45.8435 29.4011H42.3546V34.0252C42.3546 37.0007 39.7976 39.4129 36.6433 39.4129H25.2194V42.8222H35.5314C41.2266 42.8222 45.8435 38.4669 45.8435 33.0944V29.4011ZM12.8696 39.4129H23.7916V42.8222H13.4795C7.78434 42.8222 3.16748 38.4669 3.16748 33.0944V29.6721H7.15829V34.0252C7.15829 37.0007 9.71532 39.4129 12.8696 39.4129Z" fill="#00D5C0"/>
<path fill-rule="evenodd" clip-rule="evenodd" d="M11.5 34.9872H18.6085C19.1018 34.9872 19.5017 34.5822 19.5017 34.0825V21.9047C19.5017 21.4051 19.1018 21 18.6085 21H11.5V23.3752H15.445C15.9383 23.3752 16.3383 23.7802 16.3383 24.2799V32.1032C16.3383 32.6029 15.9383 33.0079 15.445 33.0079H11.5V34.9872Z" fill="#FF7300"/>
<path fill-rule="evenodd" clip-rule="evenodd" d="M31.3348 21C31.3245 21.0828 31.3191 21.1672 31.3191 21.2527V31.5928C31.3191 32.5715 32.0169 33.3889 32.9468 33.584V35.4111H27.0358V33.5642C27.9226 33.3382 28.5778 32.5412 28.5778 31.5928V21.2527C28.5778 21.1672 28.5725 21.0828 28.5621 21H31.3348ZM33.8891 35.4111H37.2466C37.758 35.4111 38.1725 35.0007 38.1725 34.4944V21H35.4155C35.4258 21.0828 35.4312 21.1672 35.4312 21.2527V31.5928C35.4312 32.5412 34.7759 33.3382 33.8891 33.5642V35.4111ZM22.6504 35.4111H26.0935V33.5841C25.1636 33.389 24.4658 32.5715 24.4658 31.5928V21.2527C24.4658 21.1672 24.4711 21.0828 24.4815 21H21.7245V34.4944C21.7245 35.0007 22.139 35.4111 22.6504 35.4111Z" fill="#FF7300"/>
<path d="M79.0332 14.021C80.3396 14.021 81.5348 14.2188 82.6182 14.6157C83.7172 15.0126 84.6729 15.5713 85.4854 16.2915C86.2978 16.9971 86.9279 17.835 87.374 18.8052C87.8201 19.7606 88.0429 20.812 88.043 21.9585C88.043 23.1051 87.82 24.1641 87.374 25.1343C86.9279 26.1045 86.2979 26.9423 85.4854 27.6479C84.6729 28.3535 83.7174 28.9053 82.6182 29.3022C81.5348 29.6992 80.3471 29.897 79.0566 29.897C77.7503 29.8969 76.5475 29.6991 75.4482 29.3022C74.3489 28.9053 73.3926 28.3536 72.5801 27.6479C71.7677 26.9277 71.1384 26.0897 70.6924 25.1343C70.2463 24.1641 70.0234 23.1051 70.0234 21.9585C70.0235 20.812 70.2463 19.7606 70.6924 18.8052C71.1385 17.8351 71.7677 16.997 72.5801 16.2915C73.3926 15.5712 74.3489 15.0126 75.4482 14.6157C76.5476 14.2188 77.7427 14.021 79.0332 14.021ZM99.1025 14.021C100.473 14.021 101.723 14.2412 102.854 14.6821C103.986 15.1084 104.942 15.7476 105.723 16.6001L103.715 18.3423C103.11 17.7397 102.432 17.2915 101.684 16.9976C100.935 16.6889 100.122 16.5347 99.2461 16.5347C98.3699 16.5347 97.5649 16.6666 96.832 16.9312C96.1152 17.1958 95.4859 17.5711 94.9443 18.0562C94.4187 18.5412 94.0048 19.1145 93.7021 19.7759C93.4154 20.4373 93.2715 21.1648 93.2715 21.9585C93.2715 22.7523 93.4154 23.4806 93.7021 24.1421C94.0048 24.8035 94.4187 25.3768 94.9443 25.8618C95.4859 26.3469 96.1152 26.7222 96.832 26.9868C97.5649 27.2514 98.3699 27.3833 99.2461 27.3833C100.122 27.3833 100.935 27.2368 101.684 26.9429C102.432 26.6342 103.109 26.1706 103.715 25.5532L105.723 27.3179C104.942 28.1557 103.986 28.7949 102.854 29.2358C101.723 29.6768 100.465 29.897 99.0791 29.897C97.8046 29.897 96.6178 29.7059 95.5186 29.3237C94.4352 28.9268 93.4864 28.3761 92.6738 27.6704C91.8773 26.9501 91.2566 26.1044 90.8105 25.1343C90.3644 24.164 90.1406 23.1052 90.1406 21.9585C90.1407 20.812 90.3645 19.7538 90.8105 18.7837C91.2566 17.8135 91.8857 16.9756 92.6982 16.27C93.5108 15.5497 94.4586 14.9979 95.542 14.6157C96.6253 14.2188 97.8122 14.021 99.1025 14.021ZM160.951 14.021C162.369 14.021 163.644 14.2333 164.775 14.6597C165.922 15.086 166.886 15.7115 167.667 16.5347L165.707 18.2983C165.054 17.6956 164.345 17.2544 163.58 16.9751C162.831 16.6811 162.003 16.5347 161.095 16.5347C160.219 16.5347 159.406 16.6666 158.657 16.9312C157.908 17.1957 157.263 17.5711 156.722 18.0562C156.18 18.5412 155.758 19.1144 155.455 19.7759C155.168 20.4373 155.024 21.1648 155.024 21.9585C155.024 22.7376 155.168 23.4581 155.455 24.1196C155.758 24.7812 156.18 25.362 156.722 25.8618C157.263 26.3468 157.9 26.7222 158.633 26.9868C159.366 27.2514 160.178 27.3833 161.07 27.3833C161.899 27.3833 162.696 27.266 163.461 27.0308C163.82 26.9158 164.17 26.7649 164.512 26.5815V21.7827H167.451V27.9351L167.116 28.1704C166.318 28.7026 165.41 29.1168 164.393 29.4126C163.245 29.736 162.082 29.897 160.903 29.897C159.597 29.897 158.394 29.7059 157.295 29.3237C156.212 28.9268 155.264 28.3759 154.451 27.6704C153.639 26.9501 153.009 26.1045 152.562 25.1343C152.116 24.1641 151.894 23.1051 151.894 21.9585C151.894 20.8121 152.117 19.7537 152.562 18.7837C153.009 17.8134 153.639 16.9757 154.451 16.27C155.28 15.5497 156.243 14.9979 157.343 14.6157C158.442 14.2189 159.645 14.021 160.951 14.021ZM58.7871 14.2417C60.6034 14.2417 62.1972 14.5646 63.5674 15.2114C64.9374 15.8583 66.0048 16.7553 66.7695 17.9019C67.5343 19.0485 67.916 20.4012 67.916 21.9595C67.916 23.503 67.5343 24.8557 66.7695 26.0171C66.0048 27.1637 64.9374 28.0607 63.5674 28.7075C62.1972 29.3544 60.6034 29.6772 58.7871 29.6772H51.4746V14.2417H58.7871ZM111.807 22.1616L120.075 14.2417H123.564L116.528 21.1382L123.994 29.6772H120.362L114.471 23.2065L111.807 25.7222V29.6772H108.699V14.2417H111.807V22.1616ZM129.217 29.6772H126.109V14.2417H129.217V29.6772ZM145.523 24.6919V14.2417H148.606V29.6772H146.049L136.824 19.2261V29.6772H133.741V14.2417H136.299L145.523 24.6919ZM178.259 23.0103L181.348 14.2417H186.533L189.45 23.1304L192.531 14.2417H197.885L192.531 29.6772H186.485L183.786 21.4233L180.941 29.6772H174.895L169.542 14.2417H175.349L178.259 23.0103ZM216.885 29.6772H211.054L209.933 26.9868H203.571L202.45 29.6772H196.715L204.027 14.2417H209.571L216.885 29.6772ZM225.838 14.2417C227.399 14.2417 228.746 14.4764 229.877 14.9468C231.024 15.4172 231.909 16.094 232.53 16.9761C233.151 17.8433 233.462 18.8724 233.462 20.063C233.462 21.2536 233.151 22.2826 232.53 23.1499C231.989 23.8927 231.247 24.4837 230.307 24.9253L233.82 29.6772H227.798L224.961 25.7964H223.425V29.6772H217.784V14.2417H225.838ZM249.189 18.1665H241.136V19.9751H248.21V23.7231H241.136V25.7524H249.5V29.6772H235.592V14.2417H249.189V18.1665ZM79.0332 16.5347C78.1889 16.5347 77.4083 16.6666 76.6914 16.9312C75.9905 17.1957 75.3688 17.5779 74.8271 18.0776C74.3014 18.5628 73.8867 19.1368 73.584 19.7983C73.2974 20.4449 73.1544 21.165 73.1543 21.9585C73.1543 22.7375 73.2973 23.4582 73.584 24.1196C73.8867 24.7812 74.3014 25.362 74.8271 25.8618C75.3529 26.3469 75.9745 26.7222 76.6914 26.9868C77.4083 27.2513 78.1889 27.3833 79.0332 27.3833C79.8775 27.3833 80.6581 27.2514 81.375 26.9868C82.0919 26.7222 82.7135 26.3469 83.2393 25.8618C83.7649 25.362 84.1713 24.7889 84.458 24.1421C84.7607 23.4806 84.9121 22.7523 84.9121 21.9585C84.912 21.165 84.7606 20.445 84.458 19.7983C84.1712 19.1368 83.765 18.5628 83.2393 18.0776C82.7135 17.5779 82.0919 17.1958 81.375 16.9312C80.6581 16.6666 79.8775 16.5347 79.0332 16.5347ZM54.5811 27.2515H58.6436C59.9022 27.2515 60.9864 27.0314 61.8945 26.5903C62.8184 26.1493 63.5276 25.5316 64.0215 24.7378C64.5312 23.944 64.7861 23.0178 64.7861 21.9595C64.7861 20.8865 64.5312 19.9602 64.0215 19.1812C63.5277 18.3874 62.8184 17.7696 61.8945 17.3286C60.9864 16.8876 59.9022 16.6675 58.6436 16.6675H54.5811V27.2515ZM205.133 23.2388H208.371L206.752 19.3501L205.133 23.2388ZM223.425 21.8716H225.479C226.26 21.8716 226.834 21.7095 227.2 21.3862C227.583 21.0628 227.774 20.6216 227.774 20.063C227.774 19.5044 227.583 19.0632 227.2 18.7397C226.834 18.4165 226.26 18.2544 225.479 18.2544H223.425V21.8716Z" fill="#FF7300"/>
<path d="M207.037 41.4409L208.241 37.4478H209.831L207.392 44.4468C207.336 44.5964 207.263 44.7592 207.173 44.9351C207.087 45.1111 206.971 45.2778 206.825 45.4351C206.679 45.596 206.496 45.7275 206.275 45.8286C206.058 45.9297 205.794 45.9799 205.483 45.98C205.348 45.98 205.228 45.9703 205.124 45.9517C205.019 45.9329 204.908 45.9084 204.792 45.8784V44.7671C204.829 44.7708 204.872 44.772 204.92 44.772C204.973 44.7757 205.019 44.7778 205.056 44.7778C205.273 44.7778 205.453 44.7521 205.595 44.6997C205.737 44.651 205.852 44.5698 205.938 44.4575C206.028 44.349 206.103 44.2066 206.163 44.0308L206.352 43.5317L204.208 37.4478H205.808L207.037 41.4409ZM157.927 37.3354C158.328 37.3354 158.665 37.4083 158.938 37.5542C159.169 37.6762 159.365 37.843 159.529 38.0513L159.59 37.4478H160.938V43.3403C160.938 43.8907 160.818 44.3569 160.579 44.7388C160.343 45.1244 160.011 45.4163 159.584 45.6147C159.158 45.8169 158.661 45.9184 158.096 45.9185C157.853 45.9185 157.589 45.8842 157.304 45.8169C157.023 45.7495 156.752 45.6426 156.49 45.4966C156.231 45.3543 156.016 45.1693 155.843 44.9409L156.512 44.0649C156.714 44.3006 156.942 44.4784 157.197 44.5981C157.451 44.7217 157.727 44.7837 158.023 44.7837C158.322 44.7837 158.577 44.7271 158.787 44.6147C159 44.5062 159.164 44.3457 159.276 44.1323C159.392 43.9226 159.45 43.6639 159.45 43.3569V42.9771C159.29 43.159 159.105 43.3067 158.893 43.4185C158.616 43.5644 158.291 43.6371 157.917 43.6372C157.542 43.6372 157.204 43.5612 156.905 43.4077C156.605 43.2542 156.349 43.0383 156.135 42.7612C155.926 42.4841 155.764 42.1581 155.652 41.7837C155.54 41.4093 155.484 41.0008 155.484 40.5591V40.4419C155.484 39.9775 155.54 39.5555 155.652 39.1772C155.764 38.7955 155.926 38.4681 156.135 38.1948C156.349 37.9215 156.605 37.7098 156.905 37.5601C157.208 37.4103 157.549 37.3355 157.927 37.3354ZM78.5728 37.3354C79.0331 37.3355 79.4429 37.4137 79.8022 37.5708C80.1655 37.7243 80.4508 37.9572 80.6567 38.2681C80.8662 38.5788 80.9712 38.9703 80.9712 39.4419V42.0933C80.9712 42.3963 80.9894 42.6565 81.0269 42.8735C81.068 43.087 81.1279 43.2729 81.2065 43.4302V43.5249H79.6958C79.6247 43.3714 79.5701 43.1766 79.5327 42.9409C79.5326 42.9399 79.5319 42.939 79.5317 42.938C79.4763 43.0002 79.4177 43.0618 79.353 43.1206C79.1883 43.2703 78.9903 43.3944 78.7583 43.4917C78.5261 43.5891 78.2558 43.6372 77.9487 43.6372C77.5557 43.6372 77.2038 43.559 76.8931 43.4019C76.5822 43.2446 76.3365 43.0287 76.1567 42.7554C75.9772 42.4822 75.8873 42.1716 75.8872 41.8237C75.8872 41.5017 75.9471 41.2164 76.0669 40.9692C76.1867 40.7221 76.3652 40.5147 76.6011 40.3462C76.837 40.174 77.1288 40.0446 77.4771 39.9585C77.8291 39.8686 78.2319 39.8237 78.6851 39.8237H79.4771V39.4302C79.477 39.2243 79.4408 39.0467 79.3696 38.897C79.2985 38.7472 79.1905 38.6307 79.0444 38.5483C78.8984 38.466 78.7125 38.4253 78.4878 38.4253C78.2895 38.4253 78.115 38.4585 77.9653 38.5259C77.8195 38.5932 77.707 38.6886 77.6284 38.812C77.5498 38.9318 77.5112 39.0708 77.5112 39.228H76.022C76.022 38.9773 76.082 38.7397 76.2017 38.5151C76.3215 38.2867 76.4924 38.0837 76.7134 37.9077C76.9379 37.7281 77.2056 37.5879 77.5161 37.4868C77.8307 37.3857 78.1833 37.3354 78.5728 37.3354ZM88.9028 37.3354C89.3335 37.3355 89.7139 37.4082 90.0435 37.5542C90.3728 37.6965 90.6478 37.8987 90.8687 38.1606C91.0896 38.4228 91.2563 38.738 91.3687 39.105C91.4809 39.4681 91.5376 39.8704 91.5376 40.312V40.936H87.606C87.6207 41.0998 87.6493 41.2552 87.6948 41.4019C87.766 41.6191 87.8696 41.8082 88.0044 41.9692C88.1429 42.1265 88.3076 42.2505 88.4985 42.3403C88.6932 42.4264 88.9146 42.4692 89.1616 42.4692C89.4721 42.4692 89.7527 42.4092 90.0034 42.2896C90.2581 42.166 90.4793 41.9843 90.6665 41.7446L91.4136 42.52C91.2863 42.7072 91.1141 42.8869 90.897 43.0591C90.6835 43.2313 90.4249 43.3714 90.1216 43.48C89.8184 43.5848 89.4685 43.6372 89.0718 43.6372C88.6112 43.6372 88.1966 43.5624 87.8296 43.4126C87.4629 43.2629 87.1504 43.0553 86.8921 42.7896C86.6374 42.5199 86.4408 42.2068 86.3022 41.8511C86.1675 41.4916 86.1001 41.1057 86.1001 40.6938V40.4692C86.1001 40.0014 86.1675 39.5766 86.3022 39.1948C86.4371 38.8091 86.6274 38.4768 86.8745 38.1997C87.1216 37.9227 87.4178 37.7098 87.7622 37.5601C88.1067 37.4103 88.4872 37.3354 88.9028 37.3354ZM101.536 37.3354C101.993 37.3354 102.397 37.4135 102.75 37.5708C103.105 37.7243 103.405 37.9402 103.648 38.2173C103.891 38.4943 104.076 38.8217 104.204 39.1997C104.331 39.5742 104.395 39.9846 104.395 40.4302V40.5483C104.395 40.9902 104.331 41.4006 104.204 41.7788C104.076 42.153 103.891 42.4805 103.648 42.7612C103.405 43.0383 103.106 43.2542 102.754 43.4077C102.403 43.5611 102 43.6372 101.547 43.6372C101.098 43.6372 100.695 43.5612 100.339 43.4077C99.9836 43.2542 99.6843 43.0383 99.4409 42.7612C99.1976 42.4805 99.0116 42.1531 98.8843 41.7788C98.757 41.4006 98.6939 40.9902 98.6938 40.5483V40.4302C98.6939 39.9846 98.757 39.5742 98.8843 39.1997C99.0116 38.8216 99.1976 38.4943 99.4409 38.2173C99.6843 37.9402 99.9815 37.7243 100.333 37.5708C100.685 37.4135 101.086 37.3355 101.536 37.3354ZM106.917 41.3853C106.917 41.5874 106.94 41.7563 106.985 41.8911C107.034 42.0257 107.099 42.1361 107.181 42.2222C107.267 42.3045 107.367 42.3644 107.479 42.4019C107.595 42.4355 107.719 42.4526 107.85 42.4526C108.209 42.4526 108.492 42.381 108.698 42.2388C108.87 42.1185 109 41.9641 109.091 41.7778V37.4478H110.585V43.5249H109.181L109.141 42.8931C108.961 43.1178 108.74 43.2985 108.473 43.4302C108.185 43.5687 107.844 43.6372 107.451 43.6372C107.151 43.6372 106.877 43.5965 106.63 43.5142C106.383 43.428 106.17 43.2944 105.991 43.1147C105.815 42.9313 105.678 42.6972 105.581 42.4126C105.483 42.1243 105.434 41.7778 105.434 41.3735V37.4478H106.917V41.3853ZM114.174 37.3354C114.691 37.3354 115.136 37.4199 115.506 37.5884C115.881 37.7569 116.167 37.989 116.366 38.2847C116.564 38.5767 116.664 38.9061 116.664 39.2729H115.18C115.18 39.112 115.143 38.9655 115.068 38.8345C114.997 38.7036 114.886 38.5986 114.737 38.52C114.587 38.4377 114.398 38.397 114.169 38.397C113.964 38.397 113.789 38.4303 113.647 38.4976C113.508 38.565 113.404 38.6536 113.333 38.7622C113.261 38.8708 113.225 38.9905 113.225 39.1216C113.225 39.2189 113.244 39.3067 113.282 39.3853C113.323 39.4601 113.388 39.5296 113.478 39.5933C113.568 39.6569 113.69 39.7147 113.843 39.7671C114 39.8195 114.193 39.8708 114.421 39.9194C114.875 40.0093 115.27 40.129 115.607 40.2788C115.948 40.4249 116.214 40.6194 116.405 40.8628C116.596 41.1062 116.691 41.4172 116.691 41.7954C116.691 42.0649 116.633 42.312 116.517 42.5366C116.401 42.7576 116.232 42.951 116.011 43.1157C115.79 43.2804 115.526 43.4089 115.219 43.5024C114.912 43.5923 114.566 43.6372 114.18 43.6372C113.622 43.6372 113.151 43.5386 112.765 43.3403C112.379 43.1381 112.087 42.8828 111.888 42.5757C111.69 42.265 111.59 41.943 111.59 41.6099H113.012C113.023 41.8457 113.087 42.035 113.203 42.1772C113.319 42.3195 113.465 42.4222 113.641 42.4858C113.821 42.5458 114.01 42.5757 114.208 42.5757C114.433 42.5757 114.622 42.5457 114.776 42.4858C114.929 42.4222 115.045 42.3377 115.124 42.2329C115.202 42.1244 115.242 42.0012 115.242 41.8628C115.242 41.7355 115.208 41.6211 115.141 41.52C115.074 41.419 114.946 41.327 114.759 41.2446C114.576 41.1585 114.305 41.0783 113.95 41.0034C113.635 40.936 113.345 40.8515 113.08 40.7505C112.814 40.6494 112.585 40.5276 112.394 40.3853C112.203 40.2393 112.053 40.0691 111.945 39.8745C111.84 39.6761 111.788 39.4473 111.788 39.189C111.788 38.9381 111.842 38.7019 111.951 38.481C112.059 38.2564 112.216 38.0596 112.422 37.8911C112.628 37.7189 112.88 37.5841 113.175 37.4868C113.471 37.3858 113.804 37.3355 114.174 37.3354ZM120.381 37.3354C120.812 37.3354 121.192 37.4082 121.522 37.5542C121.852 37.6965 122.127 37.8985 122.348 38.1606C122.569 38.4228 122.736 38.738 122.848 39.105C122.96 39.468 123.016 39.8704 123.016 40.312V40.936H119.085C119.1 41.0998 119.129 41.2552 119.174 41.4019C119.245 41.619 119.348 41.8082 119.483 41.9692C119.621 42.1265 119.786 42.2505 119.977 42.3403C120.172 42.4265 120.393 42.4692 120.64 42.4692C120.951 42.4692 121.232 42.4094 121.483 42.2896C121.738 42.166 121.959 41.9843 122.146 41.7446L122.893 42.52C122.766 42.7073 122.593 42.8868 122.375 43.0591C122.162 43.2312 121.904 43.3714 121.601 43.48C121.298 43.5848 120.947 43.6372 120.55 43.6372C120.09 43.6372 119.676 43.5624 119.309 43.4126C118.942 43.2628 118.629 43.0554 118.371 42.7896C118.116 42.5199 117.919 42.2068 117.781 41.8511C117.646 41.4917 117.579 41.1056 117.579 40.6938V40.4692C117.579 40.0014 117.646 39.5766 117.781 39.1948C117.916 38.8091 118.107 38.4768 118.354 38.1997C118.601 37.9227 118.897 37.7098 119.242 37.5601C119.586 37.4103 119.966 37.3355 120.381 37.3354ZM139.384 37.3354C139.845 37.3354 140.255 37.4136 140.615 37.5708C140.978 37.7243 141.262 37.9572 141.468 38.2681C141.678 38.5789 141.784 38.9701 141.784 39.4419V42.0933C141.784 42.3964 141.802 42.6565 141.839 42.8735C141.881 43.087 141.94 43.2729 142.019 43.4302V43.5249H140.508C140.437 43.3714 140.383 43.1767 140.345 42.9409C140.345 42.9399 140.344 42.939 140.344 42.938C140.289 43.0002 140.23 43.0618 140.166 43.1206C140.001 43.2704 139.802 43.3943 139.57 43.4917C139.338 43.589 139.068 43.6372 138.761 43.6372C138.368 43.6372 138.016 43.559 137.706 43.4019C137.395 43.2446 137.149 43.0287 136.969 42.7554C136.79 42.4822 136.7 42.1717 136.7 41.8237C136.7 41.5017 136.76 41.2164 136.879 40.9692C136.999 40.7223 137.177 40.5146 137.413 40.3462C137.649 40.1739 137.941 40.0446 138.29 39.9585C138.641 39.8687 139.044 39.8238 139.497 39.8237H140.289V39.4302C140.289 39.2244 140.253 39.0467 140.182 38.897C140.111 38.7473 140.003 38.6307 139.857 38.5483C139.711 38.466 139.525 38.4253 139.3 38.4253C139.102 38.4253 138.928 38.4585 138.778 38.5259C138.632 38.5932 138.52 38.6886 138.441 38.812C138.362 38.9318 138.323 39.0708 138.323 39.228H136.834C136.834 38.9773 136.894 38.7397 137.014 38.5151C137.134 38.2867 137.304 38.0837 137.525 37.9077C137.75 37.728 138.018 37.5879 138.329 37.4868C138.643 37.3857 138.995 37.3355 139.384 37.3354ZM151.99 37.3354C152.45 37.3354 152.861 37.4135 153.22 37.5708C153.583 37.7243 153.868 37.9572 154.074 38.2681C154.283 38.5788 154.388 38.9702 154.388 39.4419V42.0933C154.388 42.3964 154.407 42.6564 154.445 42.8735C154.486 43.087 154.546 43.2729 154.625 43.4302V43.5249H153.114C153.043 43.3714 152.988 43.1767 152.951 42.9409C152.951 42.9399 152.95 42.939 152.95 42.938C152.894 43.0002 152.836 43.0618 152.771 43.1206C152.606 43.2704 152.407 43.3943 152.175 43.4917C151.943 43.589 151.674 43.6372 151.367 43.6372C150.973 43.6372 150.621 43.5591 150.31 43.4019C149.999 43.2446 149.754 43.0287 149.575 42.7554C149.395 42.4822 149.305 42.1717 149.305 41.8237C149.305 41.5017 149.365 41.2164 149.485 40.9692C149.605 40.7223 149.782 40.5146 150.018 40.3462C150.254 40.1739 150.547 40.0446 150.895 39.9585C151.247 39.8687 151.649 39.8237 152.102 39.8237H152.894V39.4302C152.894 39.2244 152.859 39.0467 152.788 38.897C152.716 38.7472 152.607 38.6307 152.461 38.5483C152.315 38.4661 152.13 38.4253 151.906 38.4253C151.707 38.4253 151.533 38.4585 151.383 38.5259C151.237 38.5932 151.125 38.6886 151.046 38.812C150.968 38.9318 150.928 39.0708 150.928 39.228H149.44C149.44 38.9773 149.5 38.7397 149.62 38.5151C149.739 38.2867 149.909 38.0837 150.13 37.9077C150.355 37.728 150.623 37.5879 150.934 37.4868C151.249 37.3858 151.6 37.3355 151.99 37.3354ZM164.836 37.3354C165.267 37.3355 165.647 37.4083 165.976 37.5542C166.306 37.6965 166.581 37.8986 166.802 38.1606C167.023 38.4228 167.19 38.738 167.302 39.105C167.414 39.4681 167.471 39.8704 167.471 40.312V40.936H163.54C163.554 41.0998 163.583 41.2552 163.628 41.4019C163.7 41.6191 163.803 41.8082 163.938 41.9692C164.077 42.1264 164.241 42.2505 164.432 42.3403C164.627 42.4263 164.847 42.4692 165.094 42.4692C165.405 42.4692 165.686 42.4093 165.937 42.2896C166.192 42.166 166.413 41.9843 166.6 41.7446L167.347 42.52C167.22 42.7072 167.048 42.8869 166.831 43.0591C166.617 43.2313 166.358 43.3714 166.055 43.48C165.752 43.5848 165.401 43.6372 165.004 43.6372C164.544 43.6372 164.13 43.5623 163.763 43.4126C163.396 43.2629 163.084 43.0552 162.826 42.7896C162.571 42.5199 162.374 42.2068 162.236 41.8511C162.101 41.4916 162.034 41.1057 162.034 40.6938V40.4692C162.034 40.0014 162.101 39.5767 162.236 39.1948C162.371 38.8091 162.561 38.4768 162.808 38.1997C163.055 37.9227 163.351 37.7098 163.696 37.5601C164.04 37.4103 164.421 37.3354 164.836 37.3354ZM181.025 37.3354C181.456 37.3354 181.836 37.4082 182.166 37.5542C182.495 37.6965 182.771 37.8985 182.992 38.1606C183.213 38.4228 183.379 38.738 183.492 39.105C183.604 39.468 183.66 39.8704 183.66 40.312V40.936H179.729C179.744 41.0998 179.772 41.2551 179.818 41.4019C179.889 41.619 179.992 41.8082 180.126 41.9692C180.265 42.1265 180.43 42.2505 180.621 42.3403C180.815 42.4265 181.037 42.4692 181.284 42.4692C181.595 42.4692 181.876 42.4094 182.126 42.2896C182.381 42.166 182.602 41.9842 182.79 41.7446L183.537 42.52C183.409 42.7073 183.236 42.8868 183.019 43.0591C182.806 43.2312 182.548 43.3714 182.245 43.48C181.941 43.5848 181.591 43.6372 181.194 43.6372C180.733 43.6372 180.32 43.5624 179.953 43.4126C179.586 43.2628 179.273 43.0554 179.014 42.7896C178.76 42.5199 178.563 42.2068 178.424 41.8511C178.29 41.4917 178.222 41.1057 178.222 40.6938V40.4692C178.222 40.0014 178.29 39.5766 178.424 39.1948C178.559 38.8091 178.75 38.4768 178.998 38.1997C179.245 37.9227 179.541 37.7098 179.885 37.5601C180.23 37.4104 180.609 37.3355 181.025 37.3354ZM192.894 37.4468H193.957V38.5142H192.894V41.7729C192.894 41.9523 192.919 42.0907 192.967 42.188C193.016 42.2854 193.09 42.3516 193.187 42.3853C193.284 42.4188 193.4 42.435 193.535 42.4351C193.632 42.4351 193.722 42.4297 193.804 42.4185C193.887 42.4072 193.956 42.3965 194.012 42.3853L194.018 43.4966C193.894 43.5378 193.753 43.5719 193.596 43.5981C193.443 43.6243 193.268 43.6372 193.074 43.6372C192.741 43.6372 192.449 43.5815 192.198 43.4692C191.947 43.3531 191.752 43.1672 191.614 42.9126C191.475 42.6542 191.406 42.3132 191.406 41.8901V38.5142H190.473V37.4468H191.406V35.9526H192.894V37.4468ZM200.77 35.2339C201.377 35.2339 201.9 35.3451 202.342 35.5659C202.788 35.7869 203.133 36.0861 203.376 36.4644C203.62 36.8426 203.742 37.2679 203.742 37.7397H202.203C202.203 37.4851 202.148 37.2597 202.04 37.0649C201.935 36.8703 201.773 36.7173 201.556 36.605C201.343 36.4927 201.073 36.4361 200.748 36.436C200.433 36.436 200.171 36.4832 199.961 36.5767C199.755 36.6703 199.599 36.7975 199.495 36.9585C199.394 37.1194 199.343 37.2992 199.343 37.4976C199.343 37.6474 199.379 37.783 199.45 37.9028C199.521 38.0188 199.628 38.1291 199.77 38.2339C199.912 38.335 200.089 38.4302 200.298 38.52C200.512 38.6061 200.759 38.6927 201.04 38.7788C201.489 38.9136 201.882 39.0633 202.219 39.228C202.56 39.3927 202.842 39.58 203.067 39.7896C203.295 39.9993 203.466 40.2354 203.579 40.4976C203.695 40.7597 203.752 41.0579 203.752 41.3911C203.752 41.7429 203.683 42.0575 203.544 42.3345C203.406 42.6115 203.208 42.8478 202.95 43.0425C202.691 43.2372 202.38 43.3847 202.017 43.4858C201.658 43.5869 201.255 43.6372 200.809 43.6372C200.412 43.6372 200.019 43.5848 199.629 43.48C199.244 43.3714 198.894 43.2108 198.58 42.9976C198.265 42.7804 198.014 42.5067 197.827 42.1772C197.639 41.844 197.545 41.4539 197.545 41.0083H199.096C199.096 41.2666 199.137 41.4879 199.219 41.6714C199.305 41.8511 199.425 41.9996 199.579 42.1157C199.736 42.2281 199.92 42.3104 200.129 42.3628C200.339 42.4152 200.566 42.4409 200.809 42.4409C201.124 42.4409 201.382 42.3981 201.584 42.312C201.79 42.2221 201.944 42.0982 202.045 41.9409C202.15 41.7837 202.203 41.6039 202.203 41.4019C202.203 41.2447 202.178 41.1044 202.129 40.981C202.084 40.8537 202 40.7393 201.876 40.6382C201.757 40.5334 201.587 40.4318 201.366 40.3345C201.149 40.2334 200.867 40.1286 200.523 40.02C200.141 39.9002 199.785 39.7655 199.456 39.6157C199.126 39.4659 198.835 39.2917 198.584 39.0933C198.337 38.8948 198.145 38.6661 198.006 38.4077C197.868 38.1456 197.798 37.8421 197.798 37.4976C197.798 37.1607 197.87 36.8537 198.012 36.5767C198.158 36.2998 198.364 36.0621 198.629 35.8638C198.895 35.6615 199.208 35.5056 199.568 35.397C199.931 35.2884 200.332 35.2339 200.77 35.2339ZM212.825 37.3354C213.341 37.3355 213.785 37.4199 214.156 37.5884C214.53 37.7569 214.817 37.9889 215.015 38.2847C215.213 38.5767 215.313 38.9061 215.313 39.2729H213.83C213.83 39.112 213.792 38.9655 213.717 38.8345C213.646 38.7036 213.536 38.5986 213.386 38.52C213.236 38.4377 213.047 38.397 212.819 38.397C212.613 38.397 212.439 38.4302 212.296 38.4976C212.158 38.565 212.053 38.6536 211.982 38.7622C211.911 38.8708 211.875 38.9906 211.875 39.1216C211.876 39.2188 211.894 39.3067 211.931 39.3853C211.972 39.4601 212.038 39.5296 212.127 39.5933C212.217 39.6569 212.339 39.7147 212.493 39.7671C212.65 39.8195 212.843 39.8708 213.072 39.9194C213.525 40.0093 213.919 40.1291 214.256 40.2788C214.597 40.4248 214.863 40.6194 215.054 40.8628C215.245 41.1062 215.341 41.4172 215.341 41.7954C215.341 42.065 215.283 42.312 215.167 42.5366C215.05 42.7575 214.883 42.951 214.662 43.1157C214.441 43.2805 214.176 43.4088 213.869 43.5024C213.562 43.5923 213.215 43.6372 212.83 43.6372C212.272 43.6372 211.8 43.5387 211.415 43.3403C211.029 43.1381 210.737 42.8828 210.539 42.5757C210.34 42.2649 210.241 41.9431 210.241 41.6099H211.662C211.673 41.8457 211.736 42.035 211.852 42.1772C211.968 42.3195 212.115 42.4222 212.291 42.4858C212.47 42.5457 212.659 42.5757 212.858 42.5757C213.083 42.5757 213.272 42.5458 213.425 42.4858C213.579 42.4222 213.695 42.3378 213.774 42.2329C213.852 42.1245 213.891 42.0011 213.891 41.8628C213.891 41.7355 213.858 41.6211 213.791 41.52C213.723 41.4189 213.596 41.327 213.409 41.2446C213.225 41.1585 212.956 41.0783 212.6 41.0034C212.286 40.936 211.995 40.8516 211.729 40.7505C211.463 40.6494 211.234 40.5276 211.043 40.3853C210.853 40.2393 210.703 40.0691 210.594 39.8745C210.489 39.6761 210.437 39.4473 210.437 39.189C210.437 38.9381 210.491 38.7019 210.6 38.481C210.709 38.2563 210.866 38.0596 211.072 37.8911C211.278 37.7189 211.529 37.5842 211.825 37.4868C212.12 37.3858 212.454 37.3354 212.825 37.3354ZM218.285 37.4468H219.346V38.5142H218.285V41.7729C218.285 41.9525 218.309 42.0907 218.358 42.188C218.407 42.2854 218.479 42.3516 218.577 42.3853C218.674 42.4189 218.791 42.4351 218.925 42.4351C219.022 42.435 219.113 42.4297 219.195 42.4185C219.277 42.4073 219.346 42.3964 219.402 42.3853L219.408 43.4966C219.284 43.5377 219.144 43.5719 218.987 43.5981C218.833 43.6244 218.659 43.6372 218.464 43.6372C218.131 43.6372 217.839 43.5814 217.588 43.4692C217.337 43.3531 217.142 43.1672 217.003 42.9126C216.865 42.6542 216.796 42.3131 216.796 41.8901V38.5142H215.864V37.4468H216.796V35.9526H218.285V37.4468ZM222.896 37.3354C223.327 37.3354 223.707 37.4082 224.037 37.5542C224.366 37.6964 224.641 37.8987 224.862 38.1606C225.083 38.4228 225.249 38.738 225.362 39.105C225.474 39.4681 225.531 39.8703 225.531 40.312V40.936H221.599C221.614 41.0998 221.642 41.2552 221.688 41.4019C221.759 41.6191 221.863 41.8082 221.998 41.9692C222.136 42.1265 222.301 42.2505 222.492 42.3403C222.686 42.4264 222.908 42.4692 223.155 42.4692C223.466 42.4692 223.747 42.4094 223.998 42.2896C224.252 42.166 224.473 41.9841 224.66 41.7446L225.407 42.52C225.279 42.7072 225.107 42.8869 224.89 43.0591C224.677 43.2313 224.418 43.3714 224.115 43.48C223.812 43.5848 223.462 43.6372 223.065 43.6372C222.604 43.6372 222.191 43.5623 221.824 43.4126C221.457 43.2628 221.144 43.0554 220.885 42.7896C220.631 42.5199 220.434 42.2068 220.295 41.8511C220.161 41.4916 220.093 41.1057 220.093 40.6938V40.4692C220.093 40.0014 220.161 39.5766 220.295 39.1948C220.43 38.8091 220.621 38.4768 220.869 38.1997C221.116 37.9228 221.412 37.7098 221.756 37.5601C222.101 37.4104 222.481 37.3355 222.896 37.3354ZM68.5151 41.2583L69.9731 35.3462H71.2759L72.73 41.2681L73.9165 35.3462H75.4556L73.6011 43.5249H72.0679L70.6216 37.8647L69.1694 43.5249H67.6362L65.7827 35.3462H67.3159L68.5151 41.2583ZM85.145 37.3354C85.2273 37.3355 85.3152 37.343 85.4087 37.3579C85.506 37.3691 85.583 37.3853 85.6392 37.4077L85.6167 38.7896C85.5343 38.7746 85.4403 38.7638 85.3354 38.7563C85.2345 38.7489 85.1391 38.7446 85.0493 38.7446C84.8209 38.7446 84.62 38.7767 84.4478 38.8403C84.2756 38.9002 84.1312 38.989 84.0151 39.105C83.9218 39.2016 83.8476 39.3168 83.7905 39.4497V43.5249H82.3081V37.4478H83.7124L83.7583 38.1841C83.7712 38.1613 83.783 38.1379 83.7964 38.1157C83.9462 37.8686 84.1333 37.6773 84.3579 37.5425C84.5863 37.4039 84.8492 37.3354 85.145 37.3354ZM93.9858 38.1392C94.1862 37.8895 94.4214 37.694 94.6938 37.5542C94.9822 37.4082 95.3007 37.3345 95.6489 37.3345C95.9485 37.3345 96.22 37.3782 96.4634 37.4644C96.7105 37.5467 96.9222 37.6793 97.0981 37.8628C97.2741 38.0462 97.4088 38.2858 97.5024 38.5815C97.5998 38.8736 97.6489 39.2296 97.6489 39.6489V43.5249H96.1548V39.6382C96.1548 39.3573 96.1131 39.1361 96.0308 38.9751C95.9485 38.8105 95.8306 38.6928 95.6772 38.6216C95.5275 38.5504 95.3415 38.5142 95.1206 38.5142C94.881 38.5142 94.6747 38.5612 94.5024 38.6548C94.3304 38.7446 94.1879 38.8699 94.0757 39.0308C94.0429 39.0793 94.0138 39.1311 93.9858 39.1841V43.5249H92.4976V34.897H93.9858V38.1392ZM131.234 41.5034L133.464 35.3462H135.481V43.5249H133.936V41.0034L134.087 37.2817L131.768 43.5249H130.695L128.376 37.2749L128.533 41.0034V43.5249H126.988V35.3462H128.999L131.234 41.5034ZM146.305 37.3354C146.597 37.3355 146.861 37.3761 147.097 37.4585C147.333 37.5409 147.535 37.6723 147.704 37.8521C147.876 38.0318 148.007 38.268 148.097 38.5601C148.191 38.8483 148.238 39.2045 148.238 39.6274V43.5249H146.744V39.6157C146.744 39.3386 146.702 39.1195 146.62 38.9585C146.541 38.7975 146.425 38.6831 146.271 38.6157C146.121 38.5484 145.936 38.5151 145.715 38.5151C145.487 38.5151 145.287 38.5614 145.115 38.6548C144.946 38.7447 144.803 38.8707 144.687 39.0317C144.645 39.0913 144.609 39.155 144.575 39.2212V43.5249H143.092V37.4478H144.485L144.536 38.1841C144.547 38.1691 144.558 38.1529 144.57 38.1382C144.783 37.8799 145.036 37.681 145.328 37.5425C145.62 37.404 145.946 37.3354 146.305 37.3354ZM175.167 37.3354C175.466 37.3355 175.735 37.3783 175.975 37.4644C176.218 37.5467 176.427 37.6793 176.599 37.8628C176.771 38.0425 176.902 38.2768 176.992 38.5649C177.085 38.8533 177.132 39.2059 177.132 39.6216V43.5249H175.638V39.6157C175.638 39.32 175.597 39.0933 175.515 38.936C175.437 38.7788 175.322 38.6698 175.172 38.6099C175.023 38.5462 174.846 38.5151 174.644 38.5151C174.438 38.5151 174.258 38.5538 174.105 38.6323C173.955 38.7072 173.828 38.8129 173.723 38.9478C173.642 39.0563 173.577 39.1793 173.527 39.3169C173.529 39.3667 173.532 39.4174 173.532 39.4692V43.5249H172.049V39.6216C172.049 39.337 172.008 39.1137 171.925 38.9526C171.847 38.7917 171.732 38.6794 171.583 38.6157C171.433 38.5484 171.253 38.5151 171.043 38.5151C170.811 38.5151 170.61 38.5612 170.442 38.6548C170.277 38.7446 170.141 38.8708 170.033 39.0317C170 39.0818 169.97 39.1343 169.943 39.189V43.5249H168.459V37.4478H169.858L169.905 38.1431C170.103 37.8916 170.343 37.6947 170.627 37.5542C170.927 37.4082 171.273 37.3355 171.667 37.3354C171.94 37.3354 172.191 37.3762 172.419 37.4585C172.648 37.5371 172.845 37.6632 173.009 37.8354C173.132 37.9578 173.232 38.1081 173.313 38.2856C173.344 38.2395 173.375 38.1935 173.409 38.1499C173.607 37.8953 173.852 37.6965 174.144 37.5542C174.44 37.4082 174.781 37.3354 175.167 37.3354ZM187.838 37.3354C188.13 37.3354 188.395 37.3761 188.631 37.4585C188.867 37.5409 189.069 37.6724 189.238 37.8521C189.41 38.0318 189.541 38.2681 189.63 38.5601C189.724 38.8484 189.771 39.2044 189.771 39.6274V43.5249H188.277V39.6157C188.277 39.3387 188.236 39.1195 188.154 38.9585C188.075 38.7975 187.959 38.6831 187.805 38.6157C187.655 38.5484 187.47 38.5152 187.25 38.5151C187.021 38.5151 186.82 38.5612 186.648 38.6548C186.479 38.7447 186.337 38.8707 186.221 39.0317C186.18 39.0911 186.143 39.1543 186.109 39.2202V43.5249H184.625V37.4478H186.019L186.07 38.1831C186.081 38.1684 186.091 38.1526 186.103 38.1382C186.316 37.8798 186.57 37.681 186.862 37.5425C187.154 37.4041 187.479 37.3355 187.838 37.3354ZM233.226 37.3354C233.526 37.3355 233.795 37.3783 234.035 37.4644C234.278 37.5467 234.486 37.6793 234.659 37.8628C234.831 38.0425 234.961 38.2768 235.051 38.5649C235.145 38.8533 235.192 39.2059 235.192 39.6216V43.5249H233.698V39.6157C233.698 39.32 233.657 39.0933 233.575 38.936C233.496 38.7788 233.382 38.6698 233.232 38.6099C233.082 38.5462 232.906 38.5151 232.704 38.5151C232.498 38.5151 232.318 38.5538 232.165 38.6323C232.015 38.7072 231.888 38.8129 231.783 38.9478C231.701 39.0563 231.636 39.1793 231.586 39.3169C231.588 39.3667 231.591 39.4174 231.591 39.4692V43.5249H230.109V39.6216C230.109 39.337 230.067 39.1137 229.985 38.9526C229.906 38.7917 229.792 38.6794 229.642 38.6157C229.492 38.5484 229.313 38.5151 229.103 38.5151C228.871 38.5151 228.67 38.5612 228.501 38.6548C228.337 38.7446 228.201 38.8708 228.092 39.0317C228.06 39.0817 228.03 39.1343 228.002 39.189V43.5249H226.519V37.4478H227.917L227.964 38.1431C228.162 37.8916 228.402 37.6947 228.687 37.5542C228.987 37.4082 229.333 37.3355 229.726 37.3354C229.999 37.3354 230.251 37.3762 230.479 37.4585C230.707 37.5371 230.904 37.6632 231.069 37.8354C231.191 37.9578 231.292 38.1081 231.373 38.2856C231.404 38.2395 231.434 38.1935 231.468 38.1499C231.667 37.8953 231.912 37.6965 232.204 37.5542C232.499 37.4082 232.84 37.3354 233.226 37.3354ZM78.7583 40.7056C78.5263 40.7056 78.3219 40.7302 78.146 40.7788C77.97 40.8237 77.8257 40.8911 77.7134 40.981C77.601 41.0671 77.5166 41.1718 77.4604 41.2954C77.4043 41.4152 77.3765 41.552 77.3765 41.7056C77.3765 41.8553 77.4097 41.9901 77.4771 42.1099C77.5482 42.2297 77.6497 42.3249 77.7808 42.396C77.9155 42.4633 78.0728 42.4976 78.2524 42.4976C78.5145 42.4975 78.7433 42.4452 78.938 42.3403C79.1325 42.2318 79.2835 42.1002 79.3921 41.9468C79.4256 41.8994 79.4532 41.8521 79.4771 41.8062V40.7056H78.7583ZM139.57 40.7056C139.338 40.7056 139.133 40.7301 138.958 40.7788C138.782 40.8237 138.637 40.8911 138.525 40.981C138.413 41.067 138.328 41.1719 138.272 41.2954C138.216 41.4152 138.188 41.5522 138.188 41.7056C138.188 41.8553 138.222 41.9901 138.29 42.1099C138.361 42.2295 138.461 42.3249 138.592 42.396C138.727 42.4634 138.885 42.4976 139.065 42.4976C139.327 42.4975 139.555 42.445 139.75 42.3403C139.944 42.2317 140.096 42.1003 140.205 41.9468C140.238 41.9001 140.265 41.8534 140.289 41.8081V40.7056H139.57ZM152.175 40.7056C151.943 40.7056 151.739 40.7301 151.563 40.7788C151.387 40.8237 151.243 40.8911 151.13 40.981C151.018 41.0671 150.934 41.1719 150.877 41.2954C150.821 41.4152 150.793 41.5521 150.793 41.7056C150.793 41.8553 150.828 41.9901 150.895 42.1099C150.966 42.2295 151.067 42.3249 151.198 42.396C151.332 42.4634 151.49 42.4975 151.669 42.4976C151.931 42.4976 152.16 42.4451 152.355 42.3403C152.55 42.2317 152.701 42.1003 152.81 41.9468C152.843 41.9 152.87 41.8534 152.894 41.8081V40.7056H152.175ZM101.536 38.5034C101.296 38.5034 101.09 38.5558 100.917 38.6606C100.745 38.7617 100.605 38.9029 100.497 39.0825C100.388 39.2585 100.308 39.4628 100.255 39.6948C100.203 39.9231 100.176 40.1682 100.176 40.4302V40.5483C100.176 40.8142 100.203 41.0633 100.255 41.2954C100.308 41.5275 100.388 41.7318 100.497 41.9077C100.605 42.0835 100.745 42.2217 100.917 42.3228C101.093 42.4201 101.304 42.4692 101.547 42.4692C101.787 42.4692 101.992 42.42 102.165 42.3228C102.337 42.2216 102.478 42.0837 102.586 41.9077C102.699 41.7317 102.781 41.5275 102.833 41.2954C102.886 41.0633 102.912 40.8142 102.912 40.5483V40.4302C102.912 40.1682 102.886 39.9231 102.833 39.6948C102.781 39.4628 102.699 39.2584 102.586 39.0825C102.478 38.9028 102.336 38.7617 102.16 38.6606C101.987 38.5558 101.779 38.5034 101.536 38.5034ZM158.298 38.5151C158.074 38.5151 157.877 38.5655 157.708 38.6665C157.54 38.7639 157.401 38.9007 157.292 39.0767C157.184 39.2526 157.102 39.4569 157.045 39.689C156.993 39.9211 156.966 40.1723 156.966 40.4419V40.5591C156.966 40.8212 156.993 41.067 157.045 41.2954C157.098 41.5237 157.178 41.7259 157.287 41.9019C157.395 42.074 157.532 42.2088 157.697 42.3062C157.862 42.4035 158.058 42.4526 158.287 42.4526C158.594 42.4526 158.845 42.3886 159.04 42.2612C159.216 42.1449 159.35 41.9903 159.45 41.8003V39.1685C159.41 39.0929 159.365 39.0227 159.315 38.9585C159.206 38.8199 159.067 38.711 158.899 38.6323C158.731 38.5538 158.53 38.5152 158.298 38.5151ZM88.8911 38.5034C88.6704 38.5035 88.4776 38.5526 88.313 38.6499C88.152 38.7435 88.0173 38.8782 87.9087 39.0542C87.8039 39.2264 87.7248 39.4327 87.6724 39.6724C87.6554 39.7499 87.6428 39.8305 87.6313 39.9136H90.0767V39.8013C90.0692 39.5653 90.0243 39.3495 89.9419 39.1548C89.8595 38.9565 89.7322 38.7991 89.5601 38.6831C89.3878 38.5633 89.1645 38.5034 88.8911 38.5034ZM120.371 38.5034C120.15 38.5034 119.956 38.5525 119.792 38.6499C119.631 38.7435 119.496 38.8784 119.387 39.0542C119.282 39.2264 119.204 39.4328 119.152 39.6724C119.135 39.75 119.121 39.8304 119.11 39.9136H121.556V39.8013C121.549 39.5653 121.504 39.3495 121.421 39.1548C121.339 38.9564 121.211 38.7992 121.039 38.6831C120.866 38.5634 120.644 38.5034 120.371 38.5034ZM164.825 38.5034C164.604 38.5035 164.411 38.5526 164.247 38.6499C164.086 38.7435 163.951 38.8782 163.842 39.0542C163.737 39.2265 163.658 39.4327 163.606 39.6724C163.589 39.7499 163.576 39.8305 163.565 39.9136H166.01V39.8013C166.003 39.5653 165.958 39.3495 165.875 39.1548C165.793 38.9565 165.666 38.7991 165.494 38.6831C165.321 38.5633 165.098 38.5034 164.825 38.5034ZM181.014 38.5034C180.793 38.5034 180.6 38.5525 180.435 38.6499C180.274 38.7435 180.139 38.8784 180.031 39.0542C179.926 39.2264 179.848 39.4328 179.795 39.6724C179.778 39.75 179.765 39.8304 179.753 39.9136H182.2V39.8013C182.192 39.5653 182.147 39.3495 182.065 39.1548C181.983 38.9564 181.854 38.7992 181.682 38.6831C181.51 38.5634 181.287 38.5034 181.014 38.5034ZM222.885 38.5034C222.664 38.5034 222.471 38.5525 222.306 38.6499C222.145 38.7435 222.01 38.8783 221.902 39.0542C221.797 39.2264 221.718 39.4328 221.666 39.6724C221.649 39.7499 221.636 39.8305 221.625 39.9136H224.07V39.8013C224.062 39.5653 224.017 39.3495 223.935 39.1548C223.853 38.9565 223.725 38.7991 223.553 38.6831C223.381 38.5634 223.158 38.5035 222.885 38.5034Z" fill="#E36904"/>
</svg>
