<svg width="225" height="30" viewBox="0 0 225 30" fill="none" xmlns="http://www.w3.org/2000/svg">
<path d="M6 14.2844H8.25129V16.0732H6V14.2844Z" fill="#00D5C0"/>
<path d="M44.2719 14.2844H46.8984V15.7154H44.2719V14.2844Z" fill="#00D5C0"/>
<path fill-rule="evenodd" clip-rule="evenodd" d="M25.6592 2.83643H16.9553C12.1483 2.83643 8.25146 6.5125 8.25146 11.0472V14.2347H11.6199V10.3642C11.6199 7.85266 13.7782 5.81668 16.4405 5.81668H25.6592V2.83643ZM26.8643 5.81668H36.5067C39.169 5.81668 41.3273 7.85266 41.3273 10.3642V14.1204H44.2721V11.0472C44.2721 6.51251 40.3752 2.83643 35.5682 2.83643H26.8643V5.81668ZM44.2721 15.8357H41.3273V19.7386C41.3273 22.2502 39.169 24.2861 36.5067 24.2861H26.8643V27.1637H35.5682C40.3752 27.1637 44.2721 23.4877 44.2721 18.953V15.8357ZM16.4405 24.2861H25.6592V27.1637H16.9553C12.1483 27.1637 8.25146 23.4877 8.25146 18.953V16.0644H11.6199V19.7386C11.6199 22.2502 13.7782 24.2861 16.4405 24.2861Z" fill="#00D5C0"/>
<path fill-rule="evenodd" clip-rule="evenodd" d="M15.005 20.7241H21.0049C21.4213 20.7241 21.7589 20.3822 21.7589 19.9605V9.68183C21.7589 9.2601 21.4213 8.91821 21.0049 8.91821H15.005V10.923H18.3348C18.7512 10.923 19.0887 11.2649 19.0887 11.6866V18.2899C19.0887 18.7116 18.7512 19.0535 18.3348 19.0535H15.005V20.7241Z" fill="#FF7300"/>
<path fill-rule="evenodd" clip-rule="evenodd" d="M31.7466 8.91821C31.7379 8.9881 31.7334 9.0593 31.7334 9.13153V17.859C31.7334 18.6851 32.3223 19.3751 33.1072 19.5398V21.0819H28.118V19.523C28.8665 19.3322 29.4195 18.6596 29.4195 17.859V9.13153C29.4195 9.0593 29.415 8.98811 29.4063 8.91821H31.7466ZM33.9026 21.0819H36.7364C37.1681 21.0819 37.518 20.7355 37.518 20.3081V8.91821H35.1909C35.1996 8.98811 35.2041 9.0593 35.2041 9.13153V17.859C35.2041 18.6596 34.651 19.3323 33.9026 19.523V21.0819ZM24.4165 21.0819H27.3226V19.5398C26.5377 19.3751 25.9488 18.6851 25.9488 17.859V9.13153C25.9488 9.0593 25.9533 8.9881 25.962 8.91821H23.635V20.3081C23.635 20.7355 23.9849 21.0819 24.4165 21.0819Z" fill="#FF7300"/>
<path d="M75.1942 4.17505C76.2985 4.17505 77.3087 4.34888 78.2245 4.69556C79.1538 5.04227 79.9624 5.5302 80.6493 6.15942C81.336 6.77571 81.868 7.50741 82.245 8.35474C82.6221 9.18942 82.8104 10.108 82.8104 11.1096C82.8104 12.1111 82.6221 13.0356 82.245 13.8831C81.8679 14.7306 81.3362 15.463 80.6493 16.0793C79.9624 16.6957 79.1537 17.177 78.2245 17.5237C77.3088 17.8703 76.3055 18.0432 75.2147 18.0432C74.1104 18.0432 73.0932 17.8704 72.1639 17.5237C71.2349 17.177 70.4269 16.6956 69.7401 16.0793C69.0533 15.4502 68.5215 14.7177 68.1444 13.8831C67.7673 13.0356 67.578 12.1111 67.578 11.1096C67.578 10.108 67.7673 9.18942 68.1444 8.35474C68.5215 7.50738 69.0534 6.77571 69.7401 6.15942C70.4269 5.53029 71.2348 5.04226 72.1639 4.69556C73.0931 4.34888 74.1034 4.17508 75.1942 4.17505ZM92.16 4.17505C93.3183 4.17505 94.3757 4.36794 95.3319 4.75317C96.2881 5.12557 97.0958 5.68421 97.7557 6.42896L96.0594 7.95044C95.5477 7.42395 94.9747 7.03246 94.3417 6.77563C93.7087 6.506 93.0218 6.37134 92.2811 6.37134C91.5405 6.37136 90.8606 6.4869 90.2411 6.71802C89.635 6.94916 89.1033 7.27669 88.6454 7.70044C88.201 8.12418 87.8505 8.62457 87.5946 9.20239C87.3522 9.78025 87.2303 10.4162 87.2303 11.1096C87.2304 11.8028 87.3523 12.4382 87.5946 13.0159C87.8505 13.5937 88.2009 14.095 88.6454 14.5188C89.1032 14.9424 89.6352 15.2701 90.2411 15.5012C90.8605 15.7323 91.5405 15.8479 92.2811 15.8479C93.0218 15.8479 93.7087 15.719 94.3417 15.4622C94.9747 15.1925 95.5477 14.7886 96.0594 14.2493L97.7557 15.7903C97.0959 16.5221 96.288 17.0809 95.3319 17.4661C94.3757 17.8513 93.3112 18.0432 92.1395 18.0432C91.0623 18.0432 90.0589 17.877 89.1298 17.5432C88.2139 17.1965 87.4123 16.7143 86.7255 16.0979C86.0522 15.4688 85.5273 14.7304 85.1503 13.8831C84.7732 13.0356 84.5839 12.1111 84.5839 11.1096C84.5839 10.108 84.7732 9.18273 85.1503 8.33521C85.5274 7.4879 86.0593 6.75615 86.746 6.13989C87.4328 5.51067 88.2344 5.02943 89.1503 4.69556C90.066 4.34887 91.0692 4.17505 92.16 4.17505ZM144.442 4.17505C145.641 4.17505 146.718 4.36128 147.675 4.73364C148.644 5.10604 149.459 5.65223 150.119 6.37134L148.463 7.91235C147.911 7.3859 147.311 7.00009 146.665 6.7561C146.032 6.49928 145.331 6.37134 144.563 6.37134C143.823 6.37138 143.136 6.48691 142.503 6.71802C141.87 6.94915 141.325 7.27677 140.867 7.70044C140.409 8.12419 140.052 8.62456 139.796 9.20239C139.553 9.78023 139.432 10.4162 139.432 11.1096C139.433 11.7901 139.553 12.4195 139.796 12.9973C140.052 13.5751 140.409 14.0822 140.867 14.5188C141.325 14.9425 141.864 15.2701 142.483 15.5012C143.103 15.7323 143.79 15.8479 144.544 15.8479C145.244 15.8479 145.917 15.7447 146.563 15.5393C146.867 15.4388 147.163 15.3071 147.453 15.1467V10.9553H149.937V16.3293L149.654 16.5344C148.979 16.9994 148.212 17.3619 147.351 17.6204C146.382 17.9028 145.399 18.0432 144.402 18.0432C143.298 18.0432 142.281 17.8771 141.351 17.5432C140.436 17.1965 139.634 16.7143 138.947 16.0979C138.26 15.4688 137.728 14.7304 137.351 13.8831C136.974 13.0356 136.786 12.1111 136.786 11.1096C136.786 10.108 136.974 9.18273 137.351 8.33521C137.728 7.48793 138.26 6.75615 138.947 6.13989C139.647 5.51067 140.463 5.02943 141.392 4.69556C142.322 4.34893 143.338 4.17508 144.442 4.17505ZM58.08 4.36841C59.6153 4.36841 60.9627 4.65007 62.121 5.21509C63.2791 5.7801 64.1816 6.56411 64.828 7.56567C65.4743 8.56721 65.7977 9.74861 65.7977 11.1096C65.7977 12.4578 65.4743 13.6392 64.828 14.6536C64.1816 15.6551 63.2791 16.4391 62.121 17.0042C60.9627 17.5692 59.6153 17.8508 58.08 17.8508H51.8983V4.36841H58.08ZM102.899 11.2854L109.889 4.36841H112.838L106.89 10.3918L113.202 17.8508H110.131L105.151 12.1995L102.899 14.3967V17.8508H100.272V4.36841H102.899V11.2854ZM117.616 17.8508H114.99V4.36841H117.616V17.8508ZM131.401 13.4973V4.36841H134.007V17.8508H131.846L124.048 8.7229V17.8508H121.441V4.36841H123.602L131.401 13.4973ZM159.073 12.0295L161.684 4.36841H166.068L168.534 12.1311L171.139 4.36841H175.664L171.139 17.8508H166.027L163.746 10.6418L161.341 17.8508H156.229L151.704 4.36841H156.613L159.073 12.0295ZM191.724 17.8508H186.796L185.849 15.5012H180.471L179.523 17.8508H174.675L180.856 4.36841H185.543L191.724 17.8508ZM199.294 4.36841C200.614 4.36842 201.752 4.57371 202.708 4.98462C203.677 5.39548 204.425 5.98582 204.95 6.7561C205.475 7.51374 205.738 8.41323 205.738 9.45337C205.738 10.4934 205.475 11.3921 204.95 12.1497C204.493 12.7985 203.866 13.3147 203.071 13.7004L206.041 17.8508H200.95L198.552 14.4612H197.253V17.8508H192.485V4.36841H199.294ZM219.033 7.79614H212.225V9.37622H218.205V12.6506H212.225V14.4231H219.296V17.8508H207.538V4.36841H219.033V7.79614ZM75.1942 6.37134C74.4805 6.37137 73.8207 6.48691 73.2147 6.71802C72.6222 6.94916 72.0964 7.28243 71.6385 7.71899C71.1942 8.14274 70.8446 8.64411 70.5887 9.22192C70.3464 9.78691 70.2245 10.4162 70.2245 11.1096C70.2245 11.7901 70.3464 12.4195 70.5887 12.9973C70.8446 13.575 71.1943 14.0823 71.6385 14.5188C72.083 14.9426 72.6087 15.2701 73.2147 15.5012C73.8207 15.7323 74.4805 15.8479 75.1942 15.8479C75.908 15.8479 76.5686 15.7324 77.1747 15.5012C77.7806 15.2701 78.3055 14.9424 78.7499 14.5188C79.1943 14.0822 79.5377 13.5809 79.7802 13.0159C80.0359 12.4382 80.1639 11.8028 80.1639 11.1096C80.1639 10.4162 80.036 9.78691 79.7802 9.22192C79.5377 8.64407 79.1943 8.14276 78.7499 7.71899C78.3056 7.28261 77.7804 6.94911 77.1747 6.71802C76.5686 6.48687 75.908 6.37134 75.1942 6.37134ZM54.5243 15.7327H57.9589C59.0227 15.7327 59.9383 15.5397 60.7059 15.1545C61.4871 14.7693 62.0873 14.2298 62.5048 13.5364C62.9356 12.843 63.1512 12.034 63.1512 11.1096C63.1512 10.1724 62.9356 9.36337 62.5048 8.68286C62.0873 7.98943 61.4871 7.44994 60.7059 7.0647C59.9383 6.67957 59.0227 6.48657 57.9589 6.48657H54.5243V15.7327ZM181.791 12.2268H184.528L183.159 8.83032L181.791 12.2268ZM197.253 11.0325H198.991C199.651 11.0324 200.135 10.8911 200.445 10.6086C200.768 10.3262 200.93 9.94117 200.93 9.45337C200.93 8.9654 200.768 8.57963 200.445 8.29712C200.135 8.01476 199.651 7.87335 198.991 7.87329H197.253V11.0325Z" fill="#FF7300"/>
<path d="M208.303 24.0596L208.773 22.5039H209.392L208.443 25.2285C208.421 25.2868 208.392 25.3504 208.357 25.4189C208.324 25.4873 208.279 25.5522 208.222 25.6133C208.165 25.676 208.094 25.7272 208.008 25.7666C207.923 25.8059 207.82 25.8252 207.699 25.8252C207.647 25.8252 207.6 25.8217 207.559 25.8145C207.518 25.8072 207.476 25.7978 207.43 25.7861V25.3535C207.445 25.355 207.461 25.3555 207.48 25.3555C207.5 25.3569 207.518 25.3574 207.533 25.3574C207.617 25.3574 207.687 25.3475 207.743 25.3271C207.798 25.3082 207.843 25.2762 207.877 25.2324C207.912 25.1902 207.94 25.1347 207.964 25.0664L208.038 24.8711L207.203 22.5039H207.826L208.303 24.0596ZM189.185 22.46C189.341 22.46 189.472 22.4882 189.579 22.5449C189.669 22.5923 189.745 22.6575 189.808 22.7383L189.833 22.5039H190.358V24.7979C190.358 25.012 190.311 25.1932 190.217 25.3418C190.126 25.4919 189.997 25.6063 189.831 25.6836C189.665 25.7623 189.471 25.8018 189.251 25.8018C189.156 25.8017 189.054 25.7879 188.943 25.7617C188.834 25.7355 188.728 25.6945 188.626 25.6377C188.525 25.5823 188.441 25.5098 188.374 25.4209L188.634 25.0801C188.713 25.1718 188.802 25.2415 188.901 25.2881C189 25.3361 189.107 25.3593 189.222 25.3594C189.339 25.3594 189.439 25.3377 189.52 25.2939C189.603 25.2517 189.667 25.1894 189.711 25.1064C189.756 25.0249 189.778 24.9241 189.778 24.8047V24.6572C189.716 24.7278 189.644 24.7847 189.561 24.8281C189.453 24.8849 189.327 24.914 189.181 24.9141C189.036 24.9141 188.904 24.8839 188.788 24.8242C188.671 24.7644 188.571 24.6802 188.488 24.5723C188.406 24.4645 188.343 24.338 188.299 24.1924C188.256 24.0466 188.234 23.8869 188.234 23.7148V23.6689C188.234 23.4885 188.256 23.3248 188.299 23.1777C188.343 23.0291 188.406 22.9013 188.488 22.7949C188.571 22.6885 188.671 22.6062 188.788 22.5479C188.906 22.4896 189.038 22.46 189.185 22.46ZM158.292 22.46C158.471 22.46 158.63 22.4906 158.77 22.5518C158.912 22.6115 159.023 22.7022 159.103 22.8232C159.185 22.9442 159.225 23.0967 159.225 23.2803V24.3125C159.225 24.4305 159.233 24.5317 159.248 24.6162C159.264 24.6993 159.286 24.7718 159.317 24.833V24.8701H158.729C158.701 24.8104 158.68 24.7344 158.666 24.6426L158.665 24.6396C158.643 24.6641 158.621 24.6898 158.595 24.7129C158.531 24.771 158.454 24.8186 158.364 24.8564C158.274 24.8944 158.168 24.9141 158.049 24.9141C157.896 24.914 157.758 24.8834 157.637 24.8223C157.516 24.761 157.421 24.6767 157.351 24.5703C157.281 24.4639 157.247 24.3426 157.247 24.207C157.247 24.0818 157.27 23.9711 157.316 23.875C157.363 23.7788 157.432 23.6974 157.524 23.6318C157.616 23.5649 157.73 23.515 157.865 23.4814C158.002 23.4465 158.159 23.4287 158.336 23.4287H158.644V23.2754C158.644 23.1955 158.63 23.1265 158.602 23.0684C158.575 23.0101 158.532 22.9647 158.475 22.9326C158.418 22.9005 158.346 22.8838 158.258 22.8838C158.181 22.8838 158.114 22.8976 158.055 22.9238C157.999 22.95 157.955 22.9871 157.924 23.0352C157.894 23.0818 157.879 23.136 157.879 23.1973H157.299C157.299 23.0996 157.322 23.0064 157.369 22.9189C157.415 22.8301 157.482 22.7511 157.568 22.6826C157.655 22.6128 157.76 22.5579 157.881 22.5186C158.003 22.4792 158.14 22.46 158.292 22.46ZM162.313 22.46C162.481 22.46 162.629 22.4881 162.758 22.5449C162.886 22.6003 162.993 22.6793 163.079 22.7812C163.165 22.8832 163.229 23.0058 163.273 23.1484C163.317 23.2899 163.339 23.4471 163.339 23.6191V23.8613H161.81C161.816 23.9252 161.826 23.9858 161.843 24.043C161.871 24.1274 161.911 24.201 161.964 24.2637C162.017 24.3249 162.082 24.3732 162.156 24.4082C162.232 24.4417 162.318 24.459 162.414 24.459C162.535 24.459 162.644 24.4353 162.742 24.3887C162.841 24.3406 162.927 24.2699 163 24.1768L163.291 24.4785C163.241 24.5514 163.174 24.6215 163.09 24.6885C163.006 24.7555 162.906 24.8103 162.788 24.8525C162.67 24.8933 162.533 24.9141 162.379 24.9141C162.2 24.914 162.039 24.8843 161.896 24.8262C161.753 24.7679 161.632 24.6865 161.531 24.583C161.432 24.478 161.354 24.3563 161.3 24.2178C161.248 24.078 161.222 23.9277 161.222 23.7676V23.6807C161.222 23.4984 161.248 23.3323 161.3 23.1836C161.353 23.0335 161.428 22.9047 161.524 22.7969C161.62 22.689 161.736 22.6062 161.87 22.5479C162.004 22.4896 162.151 22.46 162.313 22.46ZM167.231 22.46C167.409 22.46 167.567 22.4906 167.704 22.5518C167.842 22.6115 167.959 22.6958 168.053 22.8037C168.148 22.9115 168.221 23.0385 168.27 23.1855C168.32 23.3313 168.344 23.4915 168.344 23.665V23.7109C168.344 23.8828 168.32 24.0423 168.27 24.1895C168.221 24.3352 168.148 24.4629 168.053 24.5723C167.959 24.6801 167.843 24.7645 167.706 24.8242C167.569 24.8839 167.412 24.9141 167.236 24.9141C167.061 24.9141 166.904 24.884 166.765 24.8242C166.627 24.7645 166.51 24.6801 166.416 24.5723C166.321 24.463 166.248 24.3351 166.199 24.1895C166.149 24.0423 166.125 23.8828 166.125 23.7109V23.665C166.125 23.4915 166.149 23.3313 166.199 23.1855C166.248 23.0386 166.321 22.9115 166.416 22.8037C166.51 22.6959 166.626 22.6115 166.763 22.5518C166.9 22.4906 167.056 22.46 167.231 22.46ZM169.327 24.0371C169.327 24.1157 169.336 24.181 169.353 24.2334C169.372 24.2858 169.397 24.3288 169.429 24.3623C169.463 24.3944 169.502 24.418 169.546 24.4326C169.591 24.4456 169.638 24.4521 169.689 24.4521C169.829 24.4521 169.94 24.4245 170.02 24.3691C170.087 24.3224 170.137 24.2618 170.173 24.1895V22.5039H170.755V24.8701H170.208L170.192 24.624C170.122 24.7114 170.036 24.7818 169.932 24.833C169.82 24.8869 169.687 24.9141 169.534 24.9141C169.418 24.914 169.312 24.8972 169.216 24.8652C169.119 24.8317 169.035 24.7799 168.966 24.71C168.897 24.6386 168.844 24.5472 168.806 24.4365C168.768 24.3243 168.75 24.1896 168.75 24.0322V22.5039H169.327V24.0371ZM172.152 22.46C172.353 22.46 172.526 22.493 172.671 22.5586C172.816 22.6241 172.927 22.7142 173.005 22.8291C173.082 22.9428 173.121 23.072 173.121 23.2148H172.544C172.544 23.1522 172.529 23.095 172.5 23.0439C172.472 22.993 172.429 22.9525 172.371 22.9219C172.313 22.8898 172.239 22.8731 172.15 22.873C172.07 22.873 172.001 22.8868 171.946 22.9131C171.892 22.9393 171.852 22.9735 171.824 23.0156C171.796 23.0578 171.783 23.1044 171.783 23.1553C171.783 23.1931 171.79 23.2273 171.804 23.2578C171.82 23.2869 171.846 23.3141 171.881 23.3389C171.916 23.3637 171.963 23.3868 172.023 23.4072C172.084 23.4276 172.159 23.4469 172.248 23.4658C172.424 23.5008 172.578 23.5472 172.71 23.6055C172.842 23.6623 172.946 23.7383 173.02 23.833C173.095 23.9278 173.132 24.0491 173.132 24.1963C173.132 24.3013 173.109 24.3979 173.064 24.4854C173.019 24.5713 172.953 24.6459 172.867 24.71C172.781 24.7741 172.678 24.8249 172.558 24.8613C172.439 24.8962 172.304 24.9141 172.154 24.9141C171.937 24.914 171.753 24.8751 171.603 24.7979C171.453 24.7191 171.34 24.6195 171.262 24.5C171.185 24.379 171.146 24.2538 171.146 24.124H171.699C171.703 24.2159 171.729 24.2893 171.774 24.3447C171.819 24.4001 171.876 24.441 171.944 24.4658C172.014 24.4891 172.088 24.5 172.165 24.5C172.252 24.5 172.327 24.4891 172.386 24.4658C172.446 24.4411 172.491 24.4078 172.521 24.3672C172.552 24.3249 172.567 24.2766 172.567 24.2227C172.567 24.1731 172.554 24.1282 172.528 24.0889C172.502 24.0497 172.452 24.0144 172.38 23.9824C172.308 23.9489 172.203 23.9169 172.064 23.8877C171.942 23.8615 171.829 23.8294 171.725 23.79C171.622 23.7507 171.533 23.7028 171.459 23.6475C171.384 23.5906 171.326 23.524 171.284 23.4482C171.243 23.371 171.222 23.2822 171.222 23.1816C171.222 23.084 171.244 22.9922 171.286 22.9062C171.328 22.8189 171.389 22.7423 171.469 22.6768C171.55 22.6097 171.647 22.5565 171.762 22.5186C171.878 22.4792 172.008 22.46 172.152 22.46ZM174.568 22.46C174.736 22.46 174.884 22.4881 175.012 22.5449C175.141 22.6003 175.248 22.6793 175.334 22.7812C175.42 22.8832 175.485 23.0057 175.529 23.1484C175.573 23.2899 175.594 23.4471 175.594 23.6191V23.8613H174.066C174.072 23.9251 174.081 23.9858 174.098 24.043C174.126 24.1274 174.166 24.2011 174.218 24.2637C174.272 24.3248 174.337 24.3732 174.411 24.4082C174.487 24.4417 174.573 24.4589 174.669 24.459C174.79 24.459 174.899 24.4352 174.997 24.3887C175.096 24.3406 175.183 24.2701 175.256 24.1768L175.546 24.4785C175.496 24.5513 175.429 24.6215 175.344 24.6885C175.261 24.7554 175.161 24.8103 175.043 24.8525C174.925 24.8932 174.789 24.914 174.634 24.9141C174.455 24.9141 174.294 24.8844 174.151 24.8262C174.008 24.7679 173.886 24.6865 173.786 24.583C173.687 24.4781 173.61 24.3562 173.556 24.2178C173.504 24.0779 173.477 23.9278 173.477 23.7676V23.6807C173.477 23.4984 173.504 23.3323 173.556 23.1836C173.609 23.0336 173.683 22.9047 173.779 22.7969C173.875 22.689 173.991 22.6062 174.125 22.5479C174.259 22.4896 174.406 22.46 174.568 22.46ZM181.966 22.46C182.146 22.46 182.306 22.4905 182.446 22.5518C182.587 22.6115 182.698 22.7023 182.778 22.8232C182.86 22.9442 182.9 23.0967 182.9 23.2803V24.3125C182.9 24.4305 182.908 24.5317 182.923 24.6162C182.939 24.6993 182.961 24.7718 182.992 24.833V24.8701H182.404C182.376 24.8104 182.355 24.7344 182.341 24.6426L182.34 24.6396C182.318 24.6641 182.296 24.6898 182.27 24.7129C182.206 24.771 182.129 24.8186 182.039 24.8564C181.948 24.8943 181.844 24.914 181.724 24.9141C181.571 24.9141 181.434 24.8833 181.313 24.8223C181.192 24.761 181.096 24.6767 181.026 24.5703C180.956 24.4639 180.922 24.3426 180.922 24.207C180.922 24.0819 180.944 23.9711 180.991 23.875C181.038 23.7788 181.107 23.6974 181.199 23.6318C181.291 23.5649 181.404 23.515 181.54 23.4814C181.677 23.4465 181.834 23.4287 182.01 23.4287H182.319V23.2754C182.319 23.1955 182.305 23.1265 182.277 23.0684C182.249 23.01 182.207 22.9647 182.15 22.9326C182.093 22.9006 182.022 22.8838 181.934 22.8838C181.857 22.8838 181.788 22.8976 181.73 22.9238C181.673 22.9501 181.63 22.9871 181.599 23.0352C181.569 23.0818 181.553 23.136 181.553 23.1973H180.973C180.973 23.0996 180.997 23.0064 181.044 22.9189C181.09 22.8301 181.157 22.7511 181.243 22.6826C181.33 22.6127 181.434 22.5579 181.555 22.5186C181.678 22.4792 181.815 22.46 181.966 22.46ZM186.874 22.46C187.053 22.46 187.213 22.4905 187.353 22.5518C187.495 22.6115 187.605 22.7023 187.685 22.8232C187.767 22.9442 187.807 23.0966 187.807 23.2803V24.3125C187.807 24.4305 187.815 24.5317 187.83 24.6162C187.846 24.6993 187.869 24.7718 187.9 24.833V24.8701H187.311C187.284 24.8104 187.262 24.7344 187.248 24.6426L187.247 24.6406C187.225 24.6648 187.204 24.69 187.178 24.7129C187.114 24.7712 187.036 24.8185 186.946 24.8564C186.856 24.8943 186.751 24.914 186.632 24.9141C186.479 24.9141 186.341 24.8834 186.22 24.8223C186.099 24.761 186.003 24.6767 185.933 24.5703C185.863 24.4639 185.829 24.3425 185.829 24.207C185.829 24.0818 185.852 23.9712 185.899 23.875C185.946 23.7788 186.014 23.6974 186.106 23.6318C186.198 23.5648 186.312 23.515 186.448 23.4814C186.585 23.4465 186.741 23.4287 186.918 23.4287H187.226V23.2754C187.226 23.1954 187.212 23.1266 187.184 23.0684C187.157 23.01 187.114 22.9647 187.057 22.9326C187.001 22.9006 186.929 22.8838 186.841 22.8838C186.764 22.8838 186.696 22.8976 186.637 22.9238C186.581 22.9501 186.537 22.9872 186.507 23.0352C186.476 23.0818 186.461 23.1361 186.461 23.1973H185.882C185.882 23.0996 185.904 23.0064 185.951 22.9189C185.998 22.8301 186.064 22.7511 186.15 22.6826C186.237 22.6127 186.342 22.5579 186.463 22.5186C186.585 22.4792 186.722 22.46 186.874 22.46ZM191.876 22.46C192.043 22.46 192.191 22.4882 192.319 22.5449C192.447 22.6003 192.554 22.6793 192.64 22.7812C192.726 22.8832 192.792 23.0057 192.836 23.1484C192.879 23.2899 192.901 23.4471 192.901 23.6191V23.8613H191.373C191.378 23.9251 191.387 23.9858 191.405 24.043C191.433 24.1273 191.473 24.2011 191.525 24.2637C191.579 24.3248 191.643 24.3732 191.717 24.4082C191.793 24.4417 191.88 24.459 191.976 24.459C192.097 24.4589 192.206 24.4352 192.303 24.3887C192.403 24.3406 192.489 24.2701 192.562 24.1768L192.853 24.4785C192.804 24.5513 192.736 24.6215 192.652 24.6885C192.569 24.7555 192.467 24.8103 192.349 24.8525C192.231 24.8932 192.095 24.914 191.941 24.9141C191.762 24.9141 191.601 24.8845 191.458 24.8262C191.315 24.7679 191.193 24.6865 191.092 24.583C190.993 24.4781 190.917 24.3562 190.863 24.2178C190.811 24.0779 190.784 23.9278 190.784 23.7676V23.6807C190.784 23.4984 190.81 23.3323 190.863 23.1836C190.915 23.0336 190.99 22.9047 191.086 22.7969C191.182 22.689 191.297 22.6062 191.431 22.5479C191.565 22.4895 191.714 22.46 191.876 22.46ZM198.177 22.46C198.345 22.46 198.494 22.4881 198.622 22.5449C198.75 22.6003 198.857 22.6793 198.943 22.7812C199.029 22.8832 199.094 23.0058 199.137 23.1484C199.181 23.2899 199.204 23.4471 199.204 23.6191V23.8613H197.675C197.681 23.9251 197.69 23.9858 197.708 24.043C197.735 24.1274 197.775 24.2011 197.828 24.2637C197.882 24.3248 197.946 24.3732 198.02 24.4082C198.096 24.4417 198.182 24.4589 198.278 24.459C198.399 24.459 198.509 24.4353 198.606 24.3887C198.705 24.3406 198.792 24.2701 198.865 24.1768L199.155 24.4785C199.105 24.5513 199.038 24.6215 198.954 24.6885C198.871 24.7554 198.77 24.8103 198.652 24.8525C198.534 24.8932 198.398 24.914 198.244 24.9141C198.065 24.9141 197.903 24.8844 197.76 24.8262C197.618 24.7679 197.496 24.6865 197.395 24.583C197.296 24.4781 197.22 24.3562 197.166 24.2178C197.113 24.0779 197.087 23.9278 197.087 23.7676V23.6807C197.087 23.4984 197.113 23.3323 197.166 23.1836C197.218 23.0336 197.292 22.9047 197.388 22.7969C197.485 22.689 197.6 22.6062 197.734 22.5479C197.868 22.4896 198.016 22.46 198.177 22.46ZM205.865 21.6416C206.101 21.6416 206.305 21.6855 206.477 21.7715C206.651 21.8575 206.785 21.974 206.88 22.1211C206.974 22.2682 207.021 22.4337 207.021 22.6172H206.423C206.423 22.5181 206.401 22.4303 206.359 22.3545C206.318 22.2788 206.255 22.2195 206.171 22.1758C206.088 22.1321 205.983 22.1104 205.856 22.1104C205.734 22.1104 205.631 22.1286 205.549 22.165C205.469 22.2015 205.409 22.2509 205.368 22.3135C205.329 22.3761 205.309 22.4463 205.309 22.5234C205.309 22.5816 205.323 22.6341 205.35 22.6807C205.378 22.7258 205.42 22.7688 205.475 22.8096C205.531 22.8489 205.6 22.8859 205.681 22.9209C205.764 22.9544 205.86 22.988 205.969 23.0215C206.144 23.0739 206.297 23.1332 206.428 23.1973C206.561 23.2614 206.672 23.3344 206.759 23.416C206.848 23.4976 206.914 23.5895 206.958 23.6914C207.003 23.7934 207.026 23.9094 207.026 24.0391C207.026 24.176 206.999 24.2984 206.945 24.4062C206.891 24.514 206.814 24.6059 206.714 24.6816C206.613 24.7574 206.492 24.8151 206.35 24.8545C206.21 24.8939 206.053 24.9141 205.88 24.9141C205.725 24.914 205.572 24.8933 205.421 24.8525C205.27 24.8103 205.134 24.7472 205.011 24.6641C204.889 24.5795 204.791 24.4729 204.718 24.3447C204.646 24.215 204.609 24.063 204.609 23.8896H205.213C205.213 23.9902 205.229 24.077 205.261 24.1484C205.295 24.2183 205.341 24.2762 205.401 24.3213C205.462 24.3649 205.534 24.3966 205.615 24.417C205.696 24.4374 205.785 24.4482 205.88 24.4482C206.002 24.4482 206.103 24.4309 206.181 24.3975C206.262 24.3625 206.322 24.3142 206.361 24.2529C206.402 24.1917 206.423 24.1216 206.423 24.043C206.423 23.9818 206.413 23.927 206.394 23.8789C206.377 23.8295 206.344 23.7854 206.296 23.7461C206.249 23.7053 206.182 23.6658 206.096 23.6279C206.012 23.5886 205.902 23.5472 205.768 23.5049C205.62 23.4583 205.481 23.4059 205.353 23.3477C205.225 23.2894 205.112 23.2217 205.014 23.1445C204.918 23.0673 204.843 22.9784 204.789 22.8779C204.735 22.7759 204.708 22.6575 204.708 22.5234C204.708 22.3924 204.735 22.2728 204.791 22.165C204.848 22.0572 204.928 21.964 205.031 21.8867C205.134 21.808 205.256 21.7474 205.396 21.7051C205.538 21.6628 205.694 21.6416 205.865 21.6416ZM210.557 22.46C210.759 22.46 210.932 22.493 211.076 22.5586C211.222 22.6242 211.334 22.714 211.411 22.8291C211.488 22.9428 211.526 23.072 211.526 23.2148H210.949C210.949 23.1522 210.934 23.095 210.905 23.0439C210.877 22.993 210.834 22.9525 210.776 22.9219C210.718 22.8898 210.644 22.873 210.555 22.873C210.475 22.873 210.408 22.8869 210.352 22.9131C210.298 22.9393 210.257 22.9733 210.229 23.0156C210.202 23.0578 210.188 23.1044 210.188 23.1553C210.188 23.193 210.195 23.2273 210.21 23.2578C210.226 23.287 210.252 23.3141 210.287 23.3389C210.322 23.3636 210.369 23.3868 210.428 23.4072C210.49 23.4276 210.565 23.4469 210.654 23.4658C210.83 23.5008 210.984 23.5473 211.115 23.6055C211.247 23.6623 211.351 23.7384 211.425 23.833C211.5 23.9278 211.537 24.0491 211.537 24.1963C211.537 24.3013 211.515 24.3979 211.469 24.4854C211.424 24.5711 211.359 24.646 211.273 24.71C211.187 24.7741 211.084 24.8249 210.965 24.8613C210.845 24.8963 210.709 24.9141 210.559 24.9141C210.342 24.914 210.159 24.8751 210.008 24.7979C209.858 24.7191 209.745 24.6195 209.668 24.5C209.59 24.379 209.551 24.2537 209.551 24.124H210.105C210.11 24.2158 210.134 24.2893 210.179 24.3447C210.225 24.4001 210.282 24.441 210.35 24.4658C210.42 24.489 210.494 24.5 210.571 24.5C210.658 24.5 210.732 24.4891 210.792 24.4658C210.851 24.441 210.897 24.408 210.927 24.3672C210.958 24.3249 210.973 24.2766 210.973 24.2227C210.973 24.1731 210.96 24.1282 210.933 24.0889C210.907 24.0497 210.857 24.0144 210.785 23.9824C210.713 23.9489 210.609 23.9168 210.47 23.8877C210.348 23.8615 210.235 23.8293 210.132 23.79C210.028 23.7507 209.938 23.7029 209.864 23.6475C209.79 23.5906 209.731 23.524 209.689 23.4482C209.648 23.371 209.629 23.2821 209.629 23.1816C209.629 23.0841 209.649 22.9922 209.691 22.9062C209.733 22.8188 209.795 22.7424 209.876 22.6768C209.956 22.6097 210.054 22.5564 210.169 22.5186C210.284 22.4793 210.413 22.46 210.557 22.46ZM214.478 22.46C214.646 22.46 214.794 22.4881 214.923 22.5449C215.051 22.6003 215.158 22.6793 215.244 22.7812C215.33 22.8832 215.395 23.0057 215.439 23.1484C215.483 23.2899 215.505 23.4471 215.505 23.6191V23.8613H213.976C213.982 23.9251 213.991 23.9858 214.008 24.043C214.036 24.1274 214.076 24.2011 214.129 24.2637C214.182 24.3248 214.247 24.3732 214.321 24.4082C214.397 24.4417 214.483 24.4589 214.579 24.459C214.7 24.459 214.809 24.4352 214.907 24.3887C215.006 24.3406 215.093 24.2701 215.166 24.1768L215.456 24.4785C215.406 24.5513 215.339 24.6215 215.255 24.6885C215.172 24.7554 215.071 24.8103 214.953 24.8525C214.835 24.8932 214.699 24.914 214.545 24.9141C214.365 24.9141 214.204 24.8844 214.061 24.8262C213.918 24.7679 213.797 24.6865 213.696 24.583C213.597 24.4781 213.52 24.3562 213.466 24.2178C213.414 24.0779 213.387 23.9278 213.387 23.7676V23.6807C213.387 23.4984 213.414 23.3323 213.466 23.1836C213.519 23.0336 213.593 22.9047 213.689 22.7969C213.785 22.689 213.901 22.6062 214.035 22.5479C214.169 22.4896 214.317 22.46 214.478 22.46ZM202.799 22.5039H203.212V22.9189H202.799V24.1875C202.799 24.2575 202.808 24.3117 202.827 24.3496C202.846 24.3874 202.875 24.4127 202.913 24.4258C202.951 24.4388 202.995 24.4453 203.048 24.4453C203.085 24.4453 203.121 24.4438 203.153 24.4395C203.185 24.4351 203.212 24.4302 203.234 24.4258L203.236 24.8584C203.188 24.8744 203.133 24.8882 203.072 24.8984C203.012 24.9086 202.945 24.9131 202.869 24.9131C202.739 24.9131 202.625 24.8914 202.527 24.8477C202.43 24.8025 202.354 24.7306 202.3 24.6318C202.247 24.5312 202.219 24.3981 202.219 24.2334V22.9189H201.856V22.5039H202.219V21.9219H202.799V22.5039ZM212.683 22.5039H213.096V22.9189H212.683V24.1875C212.683 24.2575 212.693 24.3117 212.712 24.3496C212.73 24.3873 212.759 24.4126 212.797 24.4258C212.834 24.4389 212.88 24.4453 212.932 24.4453C212.97 24.4453 213.006 24.4438 213.038 24.4395C213.07 24.4351 213.097 24.4301 213.119 24.4258L213.121 24.8584C213.073 24.8744 213.018 24.8882 212.957 24.8984C212.897 24.9086 212.829 24.9131 212.754 24.9131C212.624 24.9131 212.509 24.8914 212.412 24.8477C212.314 24.8025 212.238 24.7308 212.184 24.6318C212.13 24.5312 212.104 24.3981 212.104 24.2334V22.9189H211.741V22.5039H212.104V21.9219H212.683V22.5039ZM154.376 23.9883L154.944 21.6855H155.451L156.017 23.9902L156.479 21.6855H157.078L156.356 24.8701H155.759L155.196 22.667L154.631 24.8701H154.034L153.312 21.6855H153.909L154.376 23.9883ZM160.953 22.4688C160.991 22.4731 161.021 22.4796 161.043 22.4883L161.034 23.0264C161.002 23.0205 160.965 23.0166 160.924 23.0137C160.885 23.0108 160.848 23.0088 160.813 23.0088C160.724 23.0088 160.646 23.0211 160.579 23.0459C160.512 23.0692 160.456 23.1034 160.411 23.1484C160.373 23.1871 160.345 23.2345 160.323 23.2881V24.8701H159.746V22.5039H160.293L160.31 22.7939C160.316 22.7841 160.32 22.7732 160.326 22.7637C160.384 22.6676 160.457 22.5934 160.545 22.541C160.633 22.4872 160.735 22.46 160.85 22.46C160.882 22.46 160.916 22.4629 160.953 22.4688ZM164.293 22.7725C164.371 22.6755 164.462 22.5993 164.568 22.5449C164.68 22.4881 164.805 22.46 164.94 22.46C165.056 22.46 165.162 22.4764 165.257 22.5098C165.353 22.5418 165.435 22.5938 165.504 22.665C165.572 22.7365 165.625 22.8301 165.662 22.9453C165.7 23.0589 165.718 23.1973 165.718 23.3604V24.8701H165.136V23.3564C165.136 23.2473 165.121 23.1613 165.089 23.0986C165.057 23.0346 165.01 22.9887 164.951 22.9609C164.893 22.9332 164.82 22.9189 164.734 22.9189C164.641 22.919 164.561 22.9373 164.494 22.9736C164.427 23.0086 164.372 23.0575 164.328 23.1201C164.315 23.1397 164.304 23.1612 164.293 23.1826V24.8701H163.713V21.5107H164.293V22.7725ZM178.794 24.083L179.662 21.6855H180.447V24.8701H179.845V23.8877L179.904 22.4385L179.002 24.8701H178.584L177.681 22.4355L177.742 23.8877V24.8701H177.14V21.6855H177.924L178.794 24.083ZM184.661 22.46C184.775 22.46 184.878 22.4757 184.969 22.5078C185.061 22.5399 185.14 22.5912 185.206 22.6611C185.273 22.731 185.323 22.823 185.358 22.9365C185.395 23.0488 185.413 23.1878 185.413 23.3525V24.8701H184.832V23.3477C184.832 23.2399 184.815 23.1544 184.783 23.0918C184.752 23.0294 184.708 22.9852 184.648 22.959C184.59 22.9328 184.517 22.919 184.431 22.9189C184.342 22.9189 184.264 22.9372 184.197 22.9736C184.131 23.0086 184.076 23.0575 184.031 23.1201C184.014 23.1441 184.001 23.1705 183.987 23.1973V24.8701H183.41V22.5039H183.952L183.971 22.79C183.976 22.7842 183.98 22.7782 183.985 22.7725C184.068 22.672 184.166 22.5949 184.28 22.541C184.394 22.4871 184.521 22.46 184.661 22.46ZM195.897 22.46C196.014 22.46 196.118 22.4772 196.212 22.5107C196.306 22.5428 196.388 22.5946 196.455 22.666C196.522 22.7359 196.573 22.8265 196.608 22.9385C196.645 23.0506 196.663 23.188 196.663 23.3496V24.8701H196.081V23.3477C196.081 23.2326 196.065 23.1442 196.033 23.083C196.002 23.0218 195.957 22.9794 195.899 22.9561C195.841 22.9313 195.772 22.9189 195.693 22.9189C195.613 22.919 195.544 22.9345 195.484 22.9648C195.426 22.994 195.375 23.0354 195.335 23.0879C195.302 23.132 195.276 23.1827 195.257 23.2393C195.257 23.2562 195.26 23.2734 195.26 23.291V24.8701H194.683V23.3496C194.683 23.2391 194.667 23.1524 194.635 23.0898C194.605 23.0272 194.56 22.9838 194.502 22.959C194.443 22.9327 194.373 22.9189 194.292 22.9189C194.201 22.919 194.123 22.9372 194.057 22.9736C193.993 23.0086 193.94 23.0576 193.898 23.1201C193.885 23.1408 193.874 23.1638 193.863 23.1865V24.8701H193.286V22.5039H193.831L193.848 22.7744C193.925 22.6765 194.019 22.5996 194.13 22.5449C194.246 22.4881 194.382 22.46 194.535 22.46C194.641 22.46 194.739 22.4758 194.828 22.5078C194.917 22.5384 194.993 22.5873 195.057 22.6543C195.105 22.7018 195.144 22.7603 195.175 22.8291C195.187 22.8114 195.2 22.7941 195.213 22.7773C195.29 22.6782 195.385 22.6003 195.499 22.5449C195.614 22.4881 195.747 22.46 195.897 22.46ZM200.831 22.46C200.944 22.46 201.047 22.4759 201.138 22.5078C201.23 22.5399 201.309 22.5912 201.375 22.6611C201.442 22.7311 201.493 22.8229 201.528 22.9365C201.564 23.0488 201.583 23.1878 201.583 23.3525V24.8701H201.001V23.3477C201.001 23.2399 200.985 23.1544 200.953 23.0918C200.922 23.0292 200.877 22.9852 200.817 22.959C200.759 22.9328 200.687 22.919 200.601 22.9189C200.512 22.9189 200.434 22.9372 200.367 22.9736C200.301 23.0086 200.246 23.0576 200.201 23.1201C200.184 23.1438 200.171 23.1699 200.157 23.1963V24.8701H199.58V22.5039H200.122L200.141 22.79C200.146 22.7843 200.15 22.7781 200.155 22.7725C200.238 22.672 200.336 22.5949 200.45 22.541C200.564 22.4871 200.691 22.46 200.831 22.46ZM218.501 22.46C218.617 22.46 218.722 22.4773 218.815 22.5107C218.91 22.5428 218.991 22.5946 219.058 22.666C219.125 22.7358 219.176 22.8267 219.211 22.9385C219.247 23.0506 219.265 23.188 219.265 23.3496V24.8701H218.684V23.3477C218.684 23.2326 218.667 23.1442 218.635 23.083C218.605 23.022 218.561 22.9793 218.503 22.9561C218.444 22.9313 218.375 22.9189 218.297 22.9189C218.217 22.919 218.146 22.9343 218.087 22.9648C218.028 22.994 217.979 23.0354 217.938 23.0879C217.905 23.1321 217.88 23.1827 217.86 23.2393C217.861 23.2562 217.864 23.2734 217.864 23.291V24.8701H217.287V23.3496C217.287 23.239 217.27 23.1525 217.238 23.0898C217.207 23.0273 217.163 22.9838 217.105 22.959C217.047 22.9328 216.977 22.919 216.895 22.9189C216.805 22.9189 216.726 22.9372 216.661 22.9736C216.597 23.0086 216.544 23.0576 216.502 23.1201C216.488 23.1408 216.478 23.1638 216.466 23.1865V24.8701H215.889V22.5039H216.433L216.451 22.7744C216.528 22.6763 216.622 22.5997 216.733 22.5449C216.85 22.4881 216.984 22.46 217.137 22.46C217.244 22.46 217.342 22.4757 217.431 22.5078C217.52 22.5384 217.597 22.5873 217.661 22.6543C217.708 22.7019 217.747 22.761 217.778 22.8301C217.79 22.812 217.803 22.7944 217.816 22.7773C217.893 22.6782 217.989 22.6003 218.102 22.5449C218.217 22.4881 218.351 22.46 218.501 22.46ZM158.364 23.7725C158.274 23.7725 158.194 23.7819 158.126 23.8008C158.057 23.8183 158 23.8439 157.957 23.8789C157.913 23.9124 157.881 23.9539 157.859 24.002C157.837 24.0485 157.826 24.1015 157.826 24.1611C157.826 24.2193 157.839 24.2718 157.865 24.3184C157.893 24.365 157.932 24.403 157.983 24.4307C158.035 24.4569 158.097 24.4697 158.167 24.4697C158.269 24.4697 158.358 24.449 158.434 24.4082C158.51 24.366 158.569 24.3154 158.611 24.2559C158.625 24.2359 158.635 24.2146 158.644 24.1953V23.7725H158.364ZM182.039 23.7725C181.948 23.7725 181.869 23.7818 181.8 23.8008C181.732 23.8183 181.675 23.8439 181.632 23.8789C181.588 23.9124 181.556 23.9539 181.534 24.002C181.512 24.0485 181.501 24.1015 181.501 24.1611C181.501 24.2192 181.514 24.2718 181.54 24.3184C181.567 24.365 181.607 24.403 181.658 24.4307C181.71 24.4568 181.772 24.4697 181.841 24.4697C181.944 24.4697 182.033 24.449 182.109 24.4082C182.185 24.366 182.244 24.3154 182.286 24.2559C182.3 24.2359 182.309 24.2146 182.319 24.1953V23.7725H182.039ZM186.946 23.7725C186.856 23.7725 186.776 23.7818 186.708 23.8008C186.639 23.8182 186.583 23.8441 186.54 23.8789C186.496 23.9124 186.463 23.9538 186.441 24.002C186.419 24.0485 186.408 24.1015 186.408 24.1611C186.408 24.2194 186.422 24.2718 186.448 24.3184C186.476 24.365 186.515 24.403 186.566 24.4307C186.618 24.4567 186.68 24.4697 186.75 24.4697C186.852 24.4697 186.941 24.449 187.016 24.4082C187.092 24.366 187.151 24.3154 187.193 24.2559C187.207 24.236 187.217 24.2146 187.226 24.1953V23.7725H186.946ZM167.231 22.915C167.138 22.9151 167.058 22.9358 166.991 22.9766C166.924 23.0159 166.869 23.0699 166.827 23.1396C166.785 23.2082 166.754 23.2885 166.733 23.3789C166.713 23.4677 166.703 23.5631 166.703 23.665V23.7109C166.703 23.8144 166.713 23.9116 166.733 24.002C166.754 24.0922 166.785 24.1718 166.827 24.2402C166.869 24.3087 166.924 24.363 166.991 24.4023C167.059 24.4402 167.141 24.459 167.236 24.459C167.329 24.459 167.409 24.4401 167.476 24.4023C167.543 24.363 167.598 24.3087 167.64 24.2402C167.684 24.1718 167.717 24.0923 167.737 24.002C167.757 23.9116 167.767 23.8144 167.767 23.7109V23.665C167.767 23.5632 167.757 23.4677 167.737 23.3789C167.717 23.2885 167.684 23.2082 167.64 23.1396C167.598 23.0699 167.543 23.0158 167.474 22.9766C167.407 22.9357 167.326 22.915 167.231 22.915ZM189.33 22.9189C189.242 22.919 189.166 22.9392 189.1 22.9785C189.035 23.0164 188.98 23.0692 188.938 23.1377C188.896 23.2061 188.864 23.2857 188.842 23.376C188.822 23.4663 188.811 23.5641 188.811 23.6689V23.7148C188.811 23.8169 188.822 23.913 188.842 24.002C188.863 24.0908 188.894 24.1698 188.936 24.2383C188.978 24.3051 189.031 24.3577 189.095 24.3955C189.16 24.4334 189.237 24.4521 189.326 24.4521C189.445 24.4521 189.543 24.4274 189.619 24.3779C189.687 24.3328 189.739 24.2728 189.778 24.1992V23.1738C189.762 23.1444 189.745 23.1168 189.725 23.0918C189.683 23.038 189.63 22.9954 189.564 22.9648C189.499 22.9342 189.42 22.9189 189.33 22.9189ZM162.309 22.915C162.223 22.915 162.148 22.9338 162.084 22.9717C162.021 23.0081 161.969 23.0605 161.926 23.1289C161.886 23.196 161.855 23.2768 161.835 23.3701C161.828 23.4002 161.824 23.4316 161.82 23.4639H162.77V23.4199C162.767 23.3283 162.75 23.2446 162.718 23.1689C162.686 23.0917 162.636 23.0296 162.569 22.9844C162.502 22.9379 162.415 22.9151 162.309 22.915ZM174.564 22.915C174.478 22.915 174.403 22.9338 174.339 22.9717C174.276 23.0081 174.224 23.0605 174.181 23.1289C174.141 23.196 174.11 23.2768 174.09 23.3701C174.083 23.4002 174.079 23.4316 174.075 23.4639H175.025V23.4199C175.022 23.3283 175.005 23.2446 174.973 23.1689C174.941 23.0917 174.891 23.0296 174.824 22.9844C174.757 22.938 174.67 22.915 174.564 22.915ZM191.871 22.915C191.785 22.9151 191.709 22.9338 191.645 22.9717C191.583 23.0081 191.53 23.0605 191.488 23.1289C191.447 23.196 191.417 23.2768 191.396 23.3701C191.39 23.4002 191.386 23.4316 191.382 23.4639H192.333V23.4199C192.33 23.3283 192.312 23.2446 192.28 23.1689C192.248 23.0917 192.199 23.0296 192.132 22.9844C192.064 22.9377 191.977 22.915 191.871 22.915ZM198.174 22.915C198.088 22.915 198.012 22.9338 197.948 22.9717C197.885 23.0081 197.833 23.0605 197.791 23.1289C197.75 23.196 197.719 23.2768 197.699 23.3701C197.692 23.4002 197.689 23.4316 197.684 23.4639H198.634V23.4199C198.632 23.3283 198.615 23.2446 198.583 23.1689C198.551 23.0917 198.5 23.0296 198.433 22.9844C198.366 22.938 198.28 22.915 198.174 22.915ZM214.474 22.915C214.388 22.915 214.313 22.9338 214.249 22.9717C214.186 23.0081 214.134 23.0605 214.091 23.1289C214.051 23.196 214.02 23.2768 214 23.3701C213.993 23.4002 213.989 23.4316 213.985 23.4639H214.936V23.4199C214.933 23.3283 214.915 23.2446 214.883 23.1689C214.851 23.0917 214.801 23.0296 214.734 22.9844C214.667 22.938 214.58 22.915 214.474 22.915Z" fill="#E36904"/>
</svg>
