<svg width="225" height="30" viewBox="0 0 225 30" fill="none" xmlns="http://www.w3.org/2000/svg">
<path d="M5 14.1519H7.66725V16.2711H5V14.1519Z" fill="#00D5C0"/>
<path d="M50.3433 14.1519H53.4551V15.8473H50.3433V14.1519Z" fill="#00D5C0"/>
<path fill-rule="evenodd" clip-rule="evenodd" d="M28.2916 0.588867H17.9795C12.2843 0.588867 7.66748 4.94416 7.66748 10.3167V14.0932H11.6583V9.50749C11.6583 6.53194 14.2153 4.11977 17.3696 4.11977H28.2916V0.588867ZM29.7194 4.11977H41.1433C44.2976 4.11977 46.8546 6.53193 46.8546 9.50749V13.9577H50.3435V10.3167C50.3435 4.94416 45.7266 0.588867 40.0314 0.588867H29.7194V4.11977ZM50.3435 15.99H46.8546V20.614C46.8546 23.5896 44.2976 26.0018 41.1433 26.0018H29.7194V29.4111H40.0314C45.7266 29.4111 50.3435 25.0558 50.3435 19.6832V15.99ZM17.3696 26.0018H28.2916V29.4111H17.9795C12.2843 29.4111 7.66748 25.0558 7.66748 19.6832V16.261H11.6583V20.614C11.6583 23.5896 14.2153 26.0018 17.3696 26.0018Z" fill="#00D5C0"/>
<path fill-rule="evenodd" clip-rule="evenodd" d="M16 21.5761H23.1085C23.6018 21.5761 24.0017 21.1711 24.0017 20.6714V8.49357C24.0017 7.99392 23.6018 7.58887 23.1085 7.58887H16V9.96407H19.945C20.4383 9.96407 20.8383 10.3691 20.8383 10.8688V18.6921C20.8383 19.1917 20.4383 19.5968 19.945 19.5968H16V21.5761Z" fill="#FF7300"/>
<path fill-rule="evenodd" clip-rule="evenodd" d="M35.8348 7.58887C35.8245 7.67167 35.8191 7.75602 35.8191 7.8416V18.1816C35.8191 19.1604 36.5169 19.9778 37.4468 20.1729V22H31.5358V20.153C32.4226 19.9271 33.0778 19.1301 33.0778 18.1816V7.8416C33.0778 7.75602 33.0725 7.67167 33.0621 7.58887H35.8348ZM38.3891 22H41.7466C42.258 22 42.6725 21.5895 42.6725 21.0833V7.58887H39.9155C39.9258 7.67167 39.9312 7.75602 39.9312 7.8416V18.1816C39.9312 19.1301 39.2759 19.9271 38.3891 20.153V22ZM27.1504 22H30.5935V20.1729C29.6636 19.9778 28.9658 19.1604 28.9658 18.1816V7.8416C28.9658 7.75602 28.9711 7.67167 28.9815 7.58887H26.2245V21.0833C26.2245 21.5895 26.639 22 27.1504 22Z" fill="#FF7300"/>
<path d="M80.2411 8.49951C81.2736 8.49956 82.2178 8.66292 83.0741 8.98779C83.9431 9.31277 84.6993 9.77008 85.3417 10.3599C85.9838 10.9375 86.4813 11.6233 86.8339 12.4175C87.1865 13.1998 87.3631 14.0607 87.3632 14.9995C87.3632 15.9383 87.1865 16.8048 86.8339 17.5991C86.4812 18.3935 85.984 19.08 85.3417 19.6577C84.6993 20.2355 83.9431 20.6872 83.0741 21.0122C82.2178 21.3371 81.2796 21.4995 80.2596 21.4995C79.227 21.4995 78.276 21.3371 77.4071 21.0122C76.5381 20.6872 75.7819 20.2355 75.1395 19.6577C74.4972 19.0679 74 18.3815 73.6473 17.5991C73.2947 16.8048 73.118 15.9383 73.118 14.9995C73.1181 14.0607 73.2947 13.1998 73.6473 12.4175C73.9999 11.6233 74.4974 10.9375 75.1395 10.3599C75.7819 9.77008 76.5381 9.31277 77.4071 8.98779C78.2761 8.66286 79.221 8.49951 80.2411 8.49951ZM96.1073 8.49951C97.1903 8.49954 98.179 8.68045 99.0731 9.0415C99.9674 9.39056 100.723 9.91469 101.34 10.6128L99.7528 12.0386C99.2743 11.5452 98.7392 11.1777 98.1473 10.937C97.5555 10.6843 96.9132 10.5581 96.2206 10.5581C95.5279 10.5581 94.8917 10.6667 94.3124 10.8833C93.7457 11.0999 93.2484 11.4071 92.8202 11.8042C92.4046 12.2014 92.0771 12.6708 91.8378 13.2124C91.6111 13.754 91.497 14.3496 91.4969 14.9995C91.4969 15.6494 91.6111 16.245 91.8378 16.7866C92.0771 17.3283 92.4046 17.7976 92.8202 18.1948C93.2484 18.592 93.7456 18.8991 94.3124 19.1157C94.8917 19.3324 95.5279 19.4409 96.2206 19.4409C96.9132 19.4409 97.5554 19.3203 98.1473 19.0796C98.7391 18.8269 99.2743 18.4482 99.7528 17.9429L101.34 19.3872C100.723 20.0731 99.9672 20.5965 99.0731 20.9575C98.1789 21.3186 97.1835 21.4995 96.0878 21.4995C95.0804 21.4995 94.1422 21.3427 93.2733 21.0298C92.4169 20.7048 91.6676 20.253 91.0253 19.6753C90.3955 19.0855 89.9043 18.3935 89.5516 17.5991C89.199 16.8048 89.0223 15.9383 89.0223 14.9995C89.0224 14.0607 89.199 13.1943 89.5516 12.3999C89.9043 11.6055 90.4015 10.9191 91.0438 10.3413C91.6861 9.75163 92.4356 9.30072 93.2919 8.98779C94.1483 8.66281 95.0871 8.49951 96.1073 8.49951ZM144.999 8.49951C146.12 8.49951 147.127 8.67493 148.021 9.02393C148.928 9.37295 149.69 9.88416 150.307 10.5581L148.759 12.0024C148.242 11.509 147.682 11.1481 147.077 10.9194C146.485 10.6787 145.83 10.5581 145.112 10.5581C144.42 10.5581 143.777 10.6667 143.185 10.8833C142.593 11.1 142.083 11.407 141.655 11.8042C141.227 12.2014 140.893 12.6708 140.654 13.2124C140.427 13.754 140.313 14.3496 140.313 14.9995C140.313 15.6374 140.427 16.2274 140.654 16.769C140.893 17.3105 141.227 17.7857 141.655 18.1948C142.083 18.592 142.588 18.8991 143.167 19.1157C143.746 19.3323 144.388 19.4409 145.094 19.4409C145.748 19.4409 146.378 19.3444 146.982 19.1519C147.266 19.0576 147.544 18.9341 147.814 18.7837V14.855H150.138V19.8921C149.445 20.4217 148.639 20.8252 147.72 21.1021C146.813 21.3668 145.893 21.4995 144.961 21.4995C143.928 21.4995 142.977 21.3427 142.108 21.0298C141.252 20.7048 140.503 20.253 139.86 19.6753C139.218 19.0856 138.721 18.3934 138.368 17.5991C138.015 16.8048 137.839 15.9383 137.839 14.9995C137.839 14.0607 138.015 13.1943 138.368 12.3999C138.721 11.6055 139.218 10.9191 139.86 10.3413C140.515 9.75157 141.277 9.30072 142.146 8.98779C143.015 8.66282 143.966 8.49952 144.999 8.49951ZM64.2362 8.68115C65.6718 8.68121 66.9315 8.94555 68.0145 9.4751C69.0976 10.0047 69.9413 10.7394 70.5458 11.6782C71.1502 12.6169 71.4529 13.7239 71.453 14.9995C71.453 16.2633 71.1503 17.3709 70.5458 18.3218C69.9412 19.2606 69.0976 19.9953 68.0145 20.5249C66.9315 21.0544 65.6718 21.3188 64.2362 21.3188H58.455V8.68115H64.2362ZM106.148 15.1665L112.685 8.68115H115.444L109.881 14.3267L115.784 21.3188H112.912L108.255 16.021L106.148 18.0815V21.3188H103.692V8.68115H106.148V15.1665ZM119.913 21.3188H117.457V8.68115H119.913V21.3188ZM132.804 17.2378V8.68115H135.24V21.3188H133.219L125.927 12.7612V21.3188H123.489V8.68115H125.511L132.804 17.2378ZM158.682 15.8608L161.123 8.68115H165.223L167.528 15.9575L169.965 8.68115H174.196L169.965 21.3188H165.184L163.051 14.5601L160.802 21.3188H156.022L151.79 8.68115H156.381L158.682 15.8608ZM189.217 21.3188H184.606L183.721 19.1167H178.691L177.806 21.3188H173.271L179.053 8.68115H183.435L189.217 21.3188ZM196.295 8.68115C197.529 8.68115 198.594 8.87314 199.488 9.2583C200.395 9.64343 201.094 10.1974 201.585 10.9194C202.076 11.6296 202.322 12.4728 202.322 13.4478C202.322 14.4225 202.076 15.2651 201.585 15.9751C201.157 16.5833 200.57 17.0667 199.827 17.4282L202.605 21.3188H197.845L195.601 18.1411H194.387V21.3188H189.929V8.68115H196.295ZM214.754 11.895H208.388V13.3755H213.979V16.4438H208.388V18.105H215V21.3188H204.005V8.68115H214.754V11.895ZM80.2411 10.5581C79.5737 10.5581 78.9562 10.6667 78.3895 10.8833C77.8355 11.0999 77.344 11.4127 76.9159 11.8218C76.5004 12.2189 76.1728 12.6885 75.9335 13.23C75.7068 13.7596 75.5927 14.3496 75.5927 14.9995C75.5927 15.6374 75.7068 16.2274 75.9335 16.769C76.1728 17.3106 76.5003 17.7856 76.9159 18.1948C77.3315 18.592 77.8228 18.8991 78.3895 19.1157C78.9562 19.3323 79.5736 19.4409 80.2411 19.4409C80.9083 19.4409 81.5251 19.3323 82.0917 19.1157C82.6584 18.8991 83.1497 18.592 83.5653 18.1948C83.9809 17.7856 84.3025 17.3162 84.5292 16.7866C84.7684 16.2451 84.8885 15.6493 84.8885 14.9995C84.8885 14.3496 84.7685 13.7596 84.5292 13.23C84.3025 12.6884 83.9809 12.2189 83.5653 11.8218C83.1497 11.4127 82.6583 11.0999 82.0917 10.8833C81.5251 10.6668 80.9083 10.5582 80.2411 10.5581ZM60.911 19.3325H64.1219C65.1167 19.3325 65.9735 19.1524 66.6913 18.7915C67.4217 18.4305 67.9825 17.9248 68.3729 17.2749C68.776 16.6249 68.9774 15.8661 68.9774 14.9995C68.9774 14.121 68.7759 13.3629 68.3729 12.7251C67.9825 12.0752 67.4218 11.5696 66.6913 11.2085C65.9735 10.8475 65.1168 10.6665 64.1219 10.6665H60.911V19.3325ZM179.926 16.0474H182.486L181.206 12.8628L179.926 16.0474ZM194.387 14.9282H196.012C196.629 14.9282 197.082 14.7955 197.372 14.5308C197.674 14.2661 197.825 13.9049 197.825 13.4478C197.825 12.9904 197.674 12.6286 197.372 12.3638C197.082 12.099 196.629 11.9673 196.012 11.9673H194.387V14.9282Z" fill="#FF7300"/>
</svg>
